<?xml version="1.0" standalone="no"?>
<!DOCTYPE svg PUBLIC "-//W3C//DTD SVG 20010904//EN"
 "http://www.w3.org/TR/2001/REC-SVG-20010904/DTD/svg10.dtd">
<svg version="1.0" xmlns="http://www.w3.org/2000/svg"
 width="700.000000pt" height="700.000000pt" viewBox="0 0 700.000000 700.000000"
 preserveAspectRatio="xMidYMid meet">
<metadata>
Created by potrace 1.11, written by Peter Selinger 2001-2013
</metadata>
<g transform="translate(0.000000,700.000000) scale(0.100000,-0.100000)"
fill="#000000" stroke="none">
<path d="M3243 6460 c-554 -54 -1070 -254 -1506 -584 -781 -591 -1215 -1529
-1157 -2499 54 -885 488 -1680 1205 -2202 394 -287 843 -465 1355 -536 127
-18 593 -18 720 0 512 71 961 249 1355 536 717 522 1151 1317 1205 2202 42
703 -179 1411 -614 1965 -274 351 -617 629 -1021 828 -276 136 -562 224 -870
270 -169 25 -515 35 -672 20z m367 -1420 c691 -43 1260 -254 1779 -658 116
-90 303 -261 299 -271 -2 -4 -81 -83 -176 -175 l-172 -169 -93 90 c-290 280
-646 485 -1040 598 -101 28 -277 65 -315 65 l-25 0 6 -97 c4 -54 7 -151 7
-216 0 -86 3 -119 13 -121 6 -2 59 -13 117 -25 281 -59 558 -185 795 -361 99
-74 225 -186 225 -201 0 -5 -35 -47 -77 -92 -43 -46 -111 -121 -152 -169 l-75
-86 -67 60 c-161 144 -358 269 -541 340 -102 40 -237 82 -244 75 -2 -2 -1 -91
3 -199 l6 -196 61 -23 c151 -54 271 -133 371 -242 36 -39 64 -75 63 -78 -2 -4
-72 -73 -156 -154 l-152 -147 -33 26 c-71 58 -158 118 -163 113 -3 -3 -42 12
-87 34 -193 92 -417 92 -615 -1 -35 -16 -112 -62 -173 -101 l-109 -71 -152
147 c-84 81 -154 151 -156 155 -2 4 35 43 82 86 97 90 211 163 329 210 l82 33
3 205 2 204 -42 -9 c-224 -49 -528 -208 -699 -366 l-59 -55 -155 149 c-85 81
-155 151 -155 155 0 12 134 130 225 198 231 171 483 288 768 355 l117 28 0
220 0 219 -47 -6 c-208 -30 -510 -124 -708 -221 -226 -110 -391 -224 -562
-388 l-102 -99 -118 104 c-110 96 -202 174 -227 190 -13 9 7 31 123 135 433
387 969 648 1546 753 55 10 127 24 160 30 33 7 112 16 175 20 63 4 122 8 130
8 8 1 80 -3 160 -8z m-36 -2815 c98 -16 199 -96 245 -194 22 -48 26 -69 26
-151 0 -81 -4 -103 -26 -150 -33 -70 -99 -136 -169 -169 -47 -22 -69 -26 -150
-26 -81 0 -103 4 -150 26 -70 33 -136 99 -169 169 -22 47 -26 69 -26 150 0 82
4 103 26 151 33 69 91 130 158 164 51 25 138 45 176 39 11 -1 38 -6 59 -9z"/>
</g>
</svg>
