<?xml version="1.0" encoding="utf-8"?>
<!-- Generator: Adobe Illustrator 16.0.0, SVG Export Plug-In . SVG Version: 6.00 Build 0)  -->
<!DOCTYPE svg PUBLIC "-//W3C//DTD SVG 1.1//EN" "http://www.w3.org/Graphics/SVG/1.1/DTD/svg11.dtd">
<svg version="1.1" id="Layer_1" xmlns="http://www.w3.org/2000/svg" xmlns:xlink="http://www.w3.org/1999/xlink" x="0px" y="0px"
	 width="140px" height="140px" viewBox="0 0 140 140" enable-background="new 0 0 140 140" xml:space="preserve">
<g>
	<path fill="#221E1F" d="M9.181,55.374v-2.996h1.242v2.996l2.834-0.945l0.405,1.215l-2.834,0.918l1.754,2.402l-1.025,0.756
		l-1.755-2.43l-1.754,2.43l-1.026-0.756l1.755-2.402l-2.834-0.918l0.405-1.215L9.181,55.374z"/>
	<path fill="#221E1F" d="M17.606,56.534h4.346c2.187,0,2.753,0.081,3.86,0.459c0.702,0.271,1.35,0.675,1.944,1.242
		c1.214,1.188,1.862,2.888,1.862,4.886c0,2.86-1.431,5.209-3.752,6.235c-1.08,0.458-1.862,0.566-4.076,0.566h-4.184v-1.458h1.728
		V57.992h-1.728V56.534z M21.385,68.438h0.891c2.159,0,3.212-0.405,4.076-1.512c0.756-0.972,1.134-2.24,1.134-3.806
		c0-2.214-0.891-3.969-2.402-4.697c-0.675-0.324-1.188-0.405-2.699-0.405h-0.999V68.438z"/>
	<path fill="#221E1F" d="M36.02,56.399h1.998l3.995,12.065h1.782v1.458h-5.426v-1.35h1.566l-0.864-2.699h-4.562l-0.945,2.699h1.485
		v1.35h-4.913v-1.458h1.674L36.02,56.399z M38.638,64.47l-0.756-2.349l-0.324-1.161l-0.243-0.917
		c-0.189-0.675-0.27-0.999-0.458-1.863c-0.162,0.702-0.216,0.918-0.486,1.836l-0.27,0.918l-0.378,1.35l-0.756,2.187H38.638z"/>
	<path fill="#221E1F" d="M45.282,56.534h4.832c3.131,0,3.968,0.162,4.994,0.945c0.864,0.647,1.323,1.565,1.323,2.726
		c0,1.836-0.945,2.942-2.996,3.482l2.375,4.777h1.7v1.458h-3.212l-2.699-6.02h-2.646v4.616h1.593v1.403h-5.264v-1.458h1.728V57.992
		h-1.728V56.534z M48.953,62.418h1.809c2.726,0,3.59-0.54,3.59-2.24c0-1.674-0.81-2.16-3.725-2.16h-1.674V62.418z"/>
	<path fill="#221E1F" d="M58.89,56.534h5.534v1.458h-1.754v6.343v1.053c0.027,2.402,0.81,3.294,2.942,3.294
		c2.16,0,3.023-0.973,3.05-3.32v-0.945v-6.424h-1.754v-1.458h5.21v1.458h-1.728v6.424c0,2.754-0.243,3.645-1.269,4.562
		c-0.918,0.81-2.132,1.214-3.59,1.214c-1.403,0-2.591-0.378-3.482-1.079c-1.106-0.891-1.431-1.781-1.431-3.914v-0.891v-6.316H58.89
		V56.534z"/>
	<path fill="#221E1F" d="M74.064,56.534h4.724l1.431,5.102l0.433,1.431c0.27,0.972,0.675,2.457,1.16,4.346
		c0.54-1.943,0.864-3.022,1.296-4.346l0.459-1.431l1.646-5.102h4.643v1.458h-1.728v10.473h1.728v1.458h-5.479v-1.403h1.781V63.66
		c0-0.161,0-0.566,0-1.214c0.027-0.271,0.027-0.675,0.027-1.242l0.027-1.215l0.026-1.971c-0.594,2.052-1.079,3.672-1.377,4.535
		l-0.513,1.484l-1.781,5.21h-1.781l-1.593-5.183l-0.459-1.512c-0.351-1.134-0.891-2.969-1.322-4.562l0.026,2.024l0.027,1.241
		l0.027,1.215v1.188v4.859h1.781v1.403h-5.155v-1.458h1.728V57.992h-1.782V56.534z"/>
	<path fill="#221E1F" d="M97.229,56.399h1.997l3.995,12.065h1.781v1.458h-5.426v-1.35h1.566l-0.864-2.699h-4.562l-0.945,2.699h1.485
		v1.35h-4.913v-1.458h1.674L97.229,56.399z M99.848,64.47l-0.756-2.349l-0.324-1.161l-0.243-0.917
		c-0.188-0.675-0.27-0.999-0.458-1.863c-0.162,0.702-0.217,0.918-0.486,1.836l-0.27,0.918l-0.378,1.35l-0.756,2.187H99.848z"/>
	<path fill="#221E1F" d="M106.815,67.169h2.78v2.753h-2.78V67.169z"/>
	<path fill="#221E1F" d="M112.026,56.534h5.426v1.458h-1.701v10.473h1.728v1.458h-5.452v-1.458h1.674V57.992h-1.674V56.534z"/>
	<path fill="#221E1F" d="M119.802,63.228c0-4.184,2.375-6.964,5.966-6.964c3.59,0,5.965,2.78,5.965,6.964s-2.375,6.964-5.965,6.964
		C122.177,70.192,119.802,67.412,119.802,63.228z M121.961,63.228c0,3.455,1.404,5.453,3.807,5.453c2.429,0,3.806-1.998,3.806-5.453
		s-1.377-5.426-3.806-5.426C123.365,57.802,121.961,59.773,121.961,63.228z"/>
</g>
</svg>
