<?xml version="1.0" standalone="no"?>
<!DOCTYPE svg PUBLIC "-//W3C//DTD SVG 20010904//EN"
 "http://www.w3.org/TR/2001/REC-SVG-20010904/DTD/svg10.dtd">
<svg version="1.0" xmlns="http://www.w3.org/2000/svg"
 width="322.000000pt" height="322.000000pt" viewBox="0 0 322.000000 322.000000"
 preserveAspectRatio="xMidYMid meet">
<metadata>
Created by potrace 1.11, written by Peter Selinger 2001-2013
</metadata>
<g transform="translate(0.000000,322.000000) scale(0.100000,-0.100000)"
fill="#000000" stroke="none">
<path d="M273 2460 c32 -16 79 -45 105 -64 65 -47 152 -144 152 -168 0 -10 4
-17 8 -14 5 3 16 -8 26 -25 9 -16 14 -29 9 -29 -4 0 -3 -4 3 -8 15 -10 52
-119 60 -178 3 -27 8 -53 11 -57 3 -4 -1 -15 -9 -24 -9 -12 -9 -15 0 -9 6 4
12 3 12 -1 0 -5 -6 -15 -12 -22 -7 -8 -8 -11 -2 -8 7 4 12 -9 13 -36 3 -54 8
-103 17 -147 8 -46 10 -52 18 -75 4 -11 14 -37 21 -59 8 -21 12 -43 8 -49 -3
-6 -2 -8 3 -5 5 3 18 -14 30 -38 11 -24 16 -41 10 -38 -6 3 -4 0 4 -8 8 -7 33
-40 55 -72 22 -33 45 -65 52 -71 7 -7 9 -15 6 -19 -4 -3 -1 -6 6 -6 7 0 9 -5
6 -10 -4 -6 -3 -9 2 -8 5 2 20 -9 35 -23 14 -14 48 -43 74 -65 27 -21 51 -42
52 -46 2 -5 8 -8 13 -8 11 0 72 -42 77 -53 2 -4 7 -5 12 -2 4 3 13 -2 20 -10
7 -8 21 -15 31 -15 10 0 20 -4 24 -9 3 -5 19 -12 35 -16 17 -4 30 -10 30 -14
0 -4 8 -7 18 -8 16 -1 35 -5 92 -19 14 -3 40 -8 58 -11 17 -3 32 -10 32 -17 0
-7 4 -6 9 2 11 17 21 17 32 0 7 -11 9 -11 9 1 0 10 3 11 13 2 8 -6 17 -8 20
-4 4 3 14 0 24 -8 9 -8 14 -9 10 -2 -5 8 9 12 47 15 34 2 52 -1 48 -7 -3 -5 1
-5 9 2 8 6 32 12 54 14 22 1 44 5 50 8 9 5 44 10 87 14 9 1 15 4 12 8 -2 4 18
12 44 20 26 7 49 15 52 18 11 14 62 31 72 25 7 -4 8 -2 4 4 -6 10 43 44 60 42
3 -1 12 7 20 17 7 10 14 14 14 9 0 -5 10 3 21 18 12 15 23 25 26 23 2 -3 32
24 65 59 34 35 65 61 69 58 5 -3 6 1 3 9 -3 9 4 22 18 31 12 9 18 16 13 16 -6
0 -5 4 1 8 6 4 23 28 38 54 20 34 32 45 44 42 13 -4 14 -3 4 4 -11 7 -10 16 5
48 10 21 23 42 28 46 6 4 7 8 2 8 -4 0 -1 13 7 29 8 15 17 41 20 56 3 16 11
32 18 37 9 5 10 8 1 8 -9 0 -9 8 -3 28 5 15 11 41 14 57 2 17 5 32 6 35 1 3 2
19 2 35 0 17 4 35 10 42 5 6 5 14 1 16 -13 8 3 186 17 205 2 1 4 7 5 12 1 6 3
11 5 13 1 1 3 11 5 22 2 11 8 21 14 23 5 2 8 9 5 16 -3 7 2 19 10 26 9 7 13
16 10 21 -3 5 0 9 5 9 6 0 11 7 11 15 0 9 7 18 15 21 8 4 12 10 9 15 -8 13
146 161 191 184 22 11 42 22 45 25 3 3 21 13 40 22 33 16 -45 17 -1365 17
l-1400 1 58 -30z"/>
<path d="M2856 2362 c-3 -5 1 -9 9 -9 8 0 12 4 9 9 -3 4 -7 8 -9 8 -2 0 -6 -4
-9 -8z"/>
<path d="M454 2282 c4 -3 14 -7 22 -8 9 -1 13 0 10 4 -4 3 -14 7 -22 8 -9 1
-13 0 -10 -4z"/>
<path d="M815 1291 c-3 -5 -2 -12 3 -15 5 -3 9 1 9 9 0 17 -3 19 -12 6z"/>
<path d="M2346 1178 c3 -5 10 -6 15 -3 13 9 11 12 -6 12 -8 0 -12 -4 -9 -9z"/>
<path d="M2195 1031 c-3 -5 -2 -12 3 -15 5 -3 9 1 9 9 0 17 -3 19 -12 6z"/>
<path d="M2070 980 c0 -5 5 -10 11 -10 5 0 7 5 4 10 -3 6 -8 10 -11 10 -2 0
-4 -4 -4 -10z"/>
<path d="M1975 920 c3 -5 8 -10 11 -10 2 0 4 5 4 10 0 6 -5 10 -11 10 -5 0 -7
-4 -4 -10z"/>
<path d="M1230 899 c0 -5 5 -7 10 -4 6 3 10 8 10 11 0 2 -4 4 -10 4 -5 0 -10
-5 -10 -11z"/>
<path d="M1415 900 c3 -5 8 -10 11 -10 2 0 4 5 4 10 0 6 -5 10 -11 10 -5 0 -7
-4 -4 -10z"/>
<path d="M1870 896 c7 -7 13 -7 20 0 6 6 3 10 -10 10 -13 0 -16 -4 -10 -10z"/>
<path d="M1336 882 c-3 -5 1 -9 9 -9 8 0 12 4 9 9 -3 4 -7 8 -9 8 -2 0 -6 -4
-9 -8z"/>
<path d="M1370 879 c0 -5 5 -7 10 -4 6 3 10 8 10 11 0 2 -4 4 -10 4 -5 0 -10
-5 -10 -11z"/>
<path d="M1630 886 c0 -2 7 -7 16 -10 8 -3 12 -2 9 4 -6 10 -25 14 -25 6z"/>
<path d="M1585 859 c-3 -4 2 -6 10 -5 21 3 28 13 10 13 -9 0 -18 -4 -20 -8z"/>
<path d="M1654 825 c0 -13 3 -22 7 -19 8 4 6 30 -2 38 -3 3 -5 -5 -5 -19z"/>
<path d="M1735 839 c-3 -4 2 -6 10 -5 21 3 28 13 10 13 -9 0 -18 -4 -20 -8z"/>
<path d="M1596 818 c3 -5 10 -6 15 -3 13 9 11 12 -6 12 -8 0 -12 -4 -9 -9z"/>
</g>
</svg>
