<svg id="Layer_1" data-name="Layer 1" xmlns="http://www.w3.org/2000/svg" viewBox="0 0 325 232"><defs><style>.cls-1{fill:#f7540d;}.cls-2{fill:#fff;}</style></defs><title>act_now</title><g id="Layer_1-2" data-name="Layer 1"><path class="cls-1" d="M316,10.67h-117L165.5,52.47,132,10.67H15a12,12,0,0,0-12,12v208a12,12,0,0,0,12,12H316a12,12,0,0,0,12-12v-208A12,12,0,0,0,316,10.67Z" transform="translate(-3 -10.67)"/></g><g id="Layer_2" data-name="Layer 2"><path class="cls-2" d="M79.25,126.35l-4.87,8.92H53l38.07-63.1h21.4l14.22,63.1H104.44l-1.55-8.92H79.25ZM97.35,93l-10,18.46h13.14Z" transform="translate(-3 -10.67)"/><path class="cls-2" d="M185,74.7a27.28,27.28,0,0,1,10.61,8.37L181,97.39a16.62,16.62,0,0,0-5.58-6.18,13,13,0,0,0-7.21-2.31A14.52,14.52,0,0,0,158.08,93a18,18,0,0,0-5.57,10.35,15.35,15.35,0,0,0,.32,7.47,9.87,9.87,0,0,0,3.73,5.23,10.72,10.72,0,0,0,6.36,1.89A18.87,18.87,0,0,0,170.6,116a30.65,30.65,0,0,0,7.94-5.27l9.71,12.88a50.82,50.82,0,0,1-14.4,9.16,39.23,39.23,0,0,1-15.29,3.4,30.68,30.68,0,0,1-16.4-4.22,23.6,23.6,0,0,1-9.82-11.65,30,30,0,0,1-1.28-16.7,37,37,0,0,1,7.38-16.48,39.93,39.93,0,0,1,14.26-11.43,41.63,41.63,0,0,1,18.35-4.13A32.61,32.61,0,0,1,185,74.7Z" transform="translate(-3 -10.67)"/><path class="cls-2" d="M233.57,88.65l-8.45,46.63H204.24l8.45-46.63H194.76l3-16.48h56.82l-3,16.48h-18Z" transform="translate(-3 -10.67)"/><path class="cls-2" d="M88.61,210.27l-19-32.21-5.84,32.21h-19l11.44-63.1H73.68l19,32.43,5.88-32.43h18.9l-11.44,63.1H88.61Z" transform="translate(-3 -10.67)"/><path class="cls-2" d="M175.15,150.69a23.69,23.69,0,0,1,10.31,11.47,28.43,28.43,0,0,1,1.47,16.52,37.36,37.36,0,0,1-7.48,16.66,40.8,40.8,0,0,1-14.5,11.6,42,42,0,0,1-18.58,4.22A33.32,33.32,0,0,1,129.3,207,23.64,23.64,0,0,1,119,195.38a29.17,29.17,0,0,1-1.41-16.7,37,37,0,0,1,7.44-16.57,40,40,0,0,1,14.44-11.43,42.66,42.66,0,0,1,18.57-4.13A33.67,33.67,0,0,1,175.15,150.69Zm-27,15.16A18.69,18.69,0,0,0,139,178.77a14.66,14.66,0,0,0,.46,7.65,11.06,11.06,0,0,0,4,5.4,10.57,10.57,0,0,0,6.34,2,13.34,13.34,0,0,0,6.93-2,17.86,17.86,0,0,0,5.66-5.4,19.63,19.63,0,0,0,3.1-7.65,15.44,15.44,0,0,0-.34-7.6,10.4,10.4,0,0,0-3.72-5.32,10.16,10.16,0,0,0-6.22-1.94A14.24,14.24,0,0,0,148.14,165.85Z" transform="translate(-3 -10.67)"/><path class="cls-2" d="M240.88,210.27L239,172.57l-15.84,37.71H201.64l-9-63.1H215l2,41.4,16.85-41.31,20.36-.09,2,41.4,16.86-41.4h21.31l-32,63.1H240.88Z" transform="translate(-3 -10.67)"/></g></svg>