<svg id="Layer_1" data-name="Layer 1" xmlns="http://www.w3.org/2000/svg" viewBox="0 0 360 358.72"><title>specialised_services</title><path d="M413.55,69.64A22.48,22.48,0,0,1,436,92.1V405.91a22.47,22.47,0,0,1-22.45,22.45H98.45A22.46,22.46,0,0,1,76,405.91V92.1A22.47,22.47,0,0,1,98.45,69.64h315.1Zm0,6.18H98.45A16.17,16.17,0,0,0,82.18,92.09V405.91a16.16,16.16,0,0,0,16.27,16.27h315.1a16.17,16.17,0,0,0,16.28-16.27V92.1a16.18,16.18,0,0,0-16.28-16.28h0Zm-7.38,2.85A19.31,19.31,0,0,1,425.52,98V398.49a19.31,19.31,0,0,1-19.36,19.36H359.84v-182c-0.59-31.56-23.31-50.67-23.31-50.67-11.82-11.82-22.19-22.88-33-34l18.64-19.83-101.21-28,34.23,99.29,18.64-19.83c16.94,15,41.94,36.76,44.44,53.06v182H274.31V389.56H259.47v28.29H216.22V240.13h27.22l-48.9-92.94-48.9,92.94h27.22V417.84h-67a19.31,19.31,0,0,1-19.36-19.36V98a19.31,19.31,0,0,1,19.36-19.36H406.17ZM274.31,269.15H259.47v16.6h14.84v-16.6Zm0,31.43H259.47v29.66h14.84V300.58Zm0,44.49H259.47v29.66h14.84V345.07Z" transform="translate(-76 -69.64)"/></svg>