<svg id="Layer_1" data-name="Layer 1" xmlns="http://www.w3.org/2000/svg" viewBox="0 0 360 358.72"><defs><style>.cls-1{fill:#fff;}</style></defs><title>traffic_management</title><path d="M413.54,69.64A22.48,22.48,0,0,1,436,92.09V405.91a22.47,22.47,0,0,1-22.46,22.45H98.45A22.46,22.46,0,0,1,76,405.91V92.09A22.47,22.47,0,0,1,98.45,69.64h315.1Zm0,6.18H98.45A16.17,16.17,0,0,0,82.18,92.09V405.91a16.16,16.16,0,0,0,16.27,16.27h315.1a16.17,16.17,0,0,0,16.28-16.27V92.09a16.18,16.18,0,0,0-16.28-16.28h0Zm-7.38,2.85A19.31,19.31,0,0,1,425.52,98V398.49a19.31,19.31,0,0,1-19.36,19.36H105.83a19.31,19.31,0,0,1-19.36-19.36V98a19.31,19.31,0,0,1,19.36-19.36H406.17Z" transform="translate(-76 -69.64)"/><g id="Layer_1-2" data-name="Layer 1"><path class="cls-1" d="M341.7,226.95a5.93,5.93,0,0,0-4.3-10H318a5.51,5.51,0,0,1-5.38-5.38V178.18a5.47,5.47,0,0,1,1.43-3.58l27.25-27.25a5.93,5.93,0,0,0-4.3-10H318a5.51,5.51,0,0,1-5.38-5.38v-2.87a7.19,7.19,0,0,0-7.17-7.17H208.31a7.19,7.19,0,0,0-7.17,7.17v2.87a5.51,5.51,0,0,1-5.38,5.38H176a5.93,5.93,0,0,0-4.3,10L199,174.6a4.6,4.6,0,0,1,1.43,3.58v33.35a5.51,5.51,0,0,1-5.38,5.38H175.32a5.93,5.93,0,0,0-4.3,10l27.25,27.25a4.6,4.6,0,0,1,1.44,3.59v33.35a5.52,5.52,0,0,1-5.38,5.38H174.6a5.93,5.93,0,0,0-4.3,10l27.25,27.25a4.6,4.6,0,0,1,1.43,3.58v31.55a7.19,7.19,0,0,0,7.17,7.17h97.53a7.19,7.19,0,0,0,7.17-7.17V337.39a5.48,5.48,0,0,1,1.43-3.58l27.25-27.25a5.93,5.93,0,0,0-4.3-10H318a5.52,5.52,0,0,1-5.38-5.38V257.79a5.48,5.48,0,0,1,1.43-3.59ZM257.08,361.05a31.55,31.55,0,1,1,31.55-31.56A31.38,31.38,0,0,1,257.08,361.05Zm0-80.32a31.55,31.55,0,1,1,31.55-31.56A31.37,31.37,0,0,1,257.08,280.73Zm0-80.32a31.55,31.55,0,1,1,31.55-31.55A31.37,31.37,0,0,1,257.08,200.41Z" transform="translate(-76 -69.64)"/><path class="cls-1" d="M276.5,169.5a5,5,0,0,1-5,5h-29a5,5,0,0,1-5-5h0a5,5,0,0,1,5-5h29a5,5,0,0,1,5,5h0Z" transform="translate(-76 -69.64)"/></g></svg>