<?xml version="1.0" encoding="utf-8"?>
<!-- Generator: Adobe Illustrator 19.2.1, SVG Export Plug-In . SVG Version: 6.00 Build 0)  -->
<svg version="1.1" id="Layer_1" xmlns="http://www.w3.org/2000/svg" xmlns:xlink="http://www.w3.org/1999/xlink" x="0px" y="0px"
	 viewBox="0 0 768 100" style="enable-background:new 0 0 768 100;" xml:space="preserve">
<style type="text/css">
	.st0{fill:#89D3F6;}
	.st1{fill:#0098C5;}
	.st2{fill:#BBE0EF;}
	.st3{fill:#FFFFFF;}
</style>
<rect class="st0" width="768" height="100"/>
<g>
	<path class="st1" d="M67.7,32.6c-6.6-6.9-15.9-11.2-26.3-11.2c-10.3,0-19.7,4.3-26.3,11.2l5.5,5.4c5.2-5.5,12.6-8.9,20.8-8.9
		c8.2,0,15.6,3.4,20.8,8.9L67.7,32.6z"/>
	<path class="st1" d="M51.6,48.3l5.5-5.4c-3.9-4.2-9.4-6.8-15.6-6.8c-6.2,0-11.7,2.6-15.6,6.8l5.5,5.4c2.5-2.8,6.1-4.5,10.1-4.5
		C45.5,43.7,49.1,45.5,51.6,48.3z"/>
	<path class="st1" d="M9.6,27.3c8-8.3,19.3-13.5,31.9-13.5c12.5,0,23.8,5.2,31.9,13.5l5.6-5.6C69.4,12,56.2,6,41.5,6S13.5,12,4,21.7
		L9.6,27.3z"/>
</g>
<g>
	<path class="st2" d="M67.9,30.6c-6.6-6.9-15.9-11.2-26.3-11.2c-10.3,0-19.7,4.3-26.3,11.2l5.5,5.4c5.2-5.5,12.6-8.9,20.8-8.9
		c8.2,0,15.6,3.4,20.8,8.9L67.9,30.6z"/>
	<path class="st2" d="M51.7,46.3l5.5-5.4c-3.9-4.2-9.4-6.8-15.6-6.8c-6.2,0-11.7,2.6-15.6,6.8l5.5,5.4c2.5-2.8,6.1-4.5,10.1-4.5
		C45.6,41.8,49.3,43.5,51.7,46.3z"/>
	<path class="st2" d="M9.8,25.3c8-8.3,19.3-13.5,31.9-13.5c12.5,0,23.8,5.2,31.9,13.5l5.6-5.6C69.6,10.1,56.3,4,41.6,4
		c-14.7,0-28,6.1-37.5,15.8L9.8,25.3z"/>
</g>
<ellipse class="st3" cx="41.4" cy="54.2" rx="6.4" ry="6.3"/>
<path class="st3" d="M48,43.4c-3.9-2.1-9.2-2.2-13.1,0.2c0-6.6,0-30.3,0-39.2c3.7-0.4,8.9-0.5,13.1,0C48,13.6,48,35,48,43.4z"/>
<g>
	<path class="st3" d="M109.5,18.6c-0.9,0.8-1.4,1.8-1.4,3c0,1.3,0.6,2.3,1.7,3c1.1,0.7,3.8,1.6,7.9,2.6c4.1,1,7.3,2.5,9.6,4.6
		c2.3,2,3.4,5,3.4,8.9c0,3.9-1.5,7-4.4,9.5c-2.9,2.4-6.7,3.6-11.5,3.6c-6.9,0-13-2.5-18.5-7.6l5.8-7.1c4.7,4.1,9,6.1,13,6.1
		c1.8,0,3.2-0.4,4.2-1.1c1-0.8,1.5-1.8,1.5-3.1c0-1.3-0.5-2.3-1.6-3.1c-1.1-0.8-3.2-1.5-6.4-2.3c-5-1.2-8.7-2.8-11.1-4.7
		c-2.3-1.9-3.5-4.9-3.5-9c0-4.1,1.5-7.3,4.4-9.5c3-2.2,6.6-3.3,11.1-3.3c2.9,0,5.8,0.5,8.7,1.5c2.9,1,5.4,2.4,7.6,4.2l-4.9,7.1
		c-3.8-2.9-7.6-4.3-11.7-4.3C111.7,17.4,110.5,17.8,109.5,18.6z"/>
	<path class="st3" d="M170.8,53.2l-4-9.4h-18.2l-4,9.4h-10.3l18.7-43.3h9.4l18.7,43.3H170.8z M157.8,22.8l-5.5,12.6h10.8L157.8,22.8
		z"/>
	<path class="st3" d="M201,37.5l11-27.6h10.5l-17.4,43.3h-8.2L179.5,9.9H190L201,37.5z"/>
	<path class="st3" d="M260.5,9.9v8.6h-21.6v8.9h19.4v8.2h-19.4v9h22.2v8.6h-31.9V9.9H260.5z"/>
	<path class="st3" d="M307.5,18.3v35h-9.7v-35h-12.3V9.9h34.2v8.4H307.5z"/>
	<path class="st3" d="M355.3,9.9h9.7v43.3h-9.7v-17h-17.2v17h-9.7V9.9h9.7V28h17.2V9.9z"/>
	<path class="st3" d="M408.4,9.9v8.6h-21.6v8.9h19.4v8.2h-19.4v9h22.2v8.6h-31.9V9.9H408.4z"/>
	<path class="st3" d="M437.2,9.9h9.7v43.3h-9.7V9.9z"/>
	<path class="st3" d="M489.4,9.9h9.7v43.3h-9.7l-20.6-27.1v27.1h-9.7V9.9h9l21.3,27.9V9.9z"/>
	<path class="st3" d="M529.6,18.3v35h-9.7v-35h-12.3V9.9h34.2v8.4H529.6z"/>
	<path class="st3" d="M581.7,9.9v8.6h-21.6v8.9h19.4v8.2h-19.4v9h22.2v8.6h-31.9V9.9H581.7z"/>
	<path class="st3" d="M627.7,24.3c0,6.9-2.7,11.4-8.2,13.4l11,15.5h-11.9l-9.6-13.8h-6.7v13.8h-9.7V9.9H609c6.7,0,11.5,1.1,14.4,3.4
		C626.2,15.6,627.7,19.2,627.7,24.3z M616,29.4c1.2-1.1,1.8-2.8,1.8-5.1c0-2.3-0.6-3.9-1.9-4.8c-1.2-0.9-3.4-1.3-6.5-1.3h-7.3V31
		h7.1C612.6,31,614.8,30.5,616,29.4z"/>
	<path class="st3" d="M669.4,9.9h9.7v43.3h-9.7l-20.6-27.1v27.1h-9.7V9.9h9l21.3,27.9V9.9z"/>
	<path class="st3" d="M722.5,9.9v8.6H701v8.9h19.4v8.2H701v9h22.2v8.6h-31.9V9.9H722.5z"/>
	<path class="st3" d="M751.7,18.3v35h-9.7v-35h-12.3V9.9H764v8.4H751.7z"/>
</g>
<g>
	<path class="st3" d="M37.8,90.8V70.9h3.4v8.6H51v-8.6h3.4v19.9H51v-8.2h-9.9v8.2H37.8z"/>
	<path class="st3" d="M71.8,90.8h-2.9v-2c-1.3,1.5-2.9,2.3-5,2.3c-1.6,0-2.9-0.4-3.9-1.3c-1-0.9-1.6-2.1-1.6-3.6s0.6-2.6,1.7-3.3
		c1.1-0.7,2.6-1.1,4.5-1.1h4.1v-0.6c0-2-1.1-3-3.4-3c-1.4,0-2.9,0.5-4.4,1.5l-1.4-2c1.8-1.5,3.9-2.2,6.3-2.2c1.8,0,3.2,0.5,4.4,1.4
		c1.1,0.9,1.7,2.3,1.7,4.3V90.8z M68.6,85.2v-1.3H65c-2.3,0-3.4,0.7-3.4,2.2c0,0.7,0.3,1.3,0.9,1.7c0.6,0.4,1.4,0.6,2.4,0.6
		c1,0,1.9-0.3,2.7-0.9C68.2,86.9,68.6,86.2,68.6,85.2z"/>
	<path class="st3" d="M80,90.8l-6.1-15.2h3.3l4.6,11.5l4.6-11.5h3.3l-6.1,15.2H80z"/>
	<path class="st3" d="M106.4,84.6H94.6c0.1,1.1,0.6,2,1.5,2.7c0.9,0.7,2,1,3.2,1c1.9,0,3.3-0.6,4.3-1.8l1.8,2
		c-1.6,1.7-3.8,2.5-6.4,2.5c-2.1,0-3.9-0.7-5.4-2.1c-1.5-1.4-2.2-3.3-2.2-5.7c0-2.4,0.8-4.3,2.3-5.7c1.5-1.4,3.3-2.1,5.4-2.1
		c2.1,0,3.8,0.6,5.3,1.9c1.4,1.2,2.2,3,2.2,5.1V84.6z M94.6,82.1h8.7c0-1.3-0.4-2.3-1.2-2.9c-0.8-0.7-1.8-1-3-1
		c-1.2,0-2.2,0.4-3.1,1.1C95,80,94.6,80.9,94.6,82.1z"/>
	<path class="st3" d="M119.7,96.9c-1.4,0-2.6-0.5-3.8-1.5l1.5-2.6c0.7,0.6,1.4,0.9,2.1,0.9s1.3-0.3,1.7-0.8c0.4-0.5,0.7-1.1,0.7-1.7
		c0-0.3-2-5.5-6.1-15.6h3.4l4.5,11.2l4.5-11.2h3.4l-7.4,18c-0.4,1-1.1,1.8-1.9,2.3C121.6,96.6,120.7,96.9,119.7,96.9z"/>
	<path class="st3" d="M146.5,88.8c-1.5,1.5-3.4,2.3-5.7,2.3c-2.3,0-4.2-0.8-5.7-2.3c-1.5-1.5-2.3-3.4-2.3-5.5c0-2.2,0.8-4,2.3-5.5
		c1.5-1.5,3.4-2.3,5.7-2.3c2.3,0,4.2,0.8,5.7,2.3c1.5,1.5,2.3,3.4,2.3,5.5C148.8,85.4,148.1,87.3,146.5,88.8z M137.4,86.8
		c0.9,0.9,2,1.4,3.4,1.4c1.4,0,2.5-0.5,3.4-1.4c0.9-0.9,1.4-2.1,1.4-3.6c0-1.5-0.5-2.7-1.4-3.6c-0.9-0.9-2-1.4-3.4-1.4
		c-1.4,0-2.5,0.5-3.4,1.4c-0.9,0.9-1.4,2.1-1.4,3.6C136.1,84.7,136.5,85.9,137.4,86.8z"/>
	<path class="st3" d="M163.1,83.9v-8.2h3.2v15.2h-3.2v-2.8c-0.5,0.9-1.2,1.7-2.1,2.2c-0.9,0.5-1.9,0.8-2.9,0.8
		c-1.7,0-3.1-0.5-4.1-1.6c-1.1-1-1.6-2.6-1.6-4.5v-9.3h3.2V84c0,2.8,1.2,4.2,3.5,4.2c1.1,0,2.1-0.4,2.9-1.1
		C162.6,86.3,163.1,85.3,163.1,83.9z"/>
	<path class="st3" d="M178.8,78.7c-1.6,0-2.8,0.5-3.6,1.5c-0.8,1-1.2,2.4-1.2,4.1v6.5h-3.2V75.7h3.2v3.1c0.5-0.9,1.2-1.7,2.1-2.3
		c0.9-0.6,1.8-0.9,2.8-0.9l0,3.2C178.9,78.7,178.9,78.7,178.8,78.7z"/>
	<path class="st3" d="M200.8,86.3c0,1.4-0.5,2.6-1.6,3.5c-1,0.9-2.4,1.3-4,1.3c-1.1,0-2.2-0.2-3.4-0.6c-1.2-0.4-2.2-1-3.1-1.7
		l1.5-2.5c1.8,1.3,3.5,2,5.1,2c0.7,0,1.3-0.2,1.7-0.5c0.4-0.3,0.6-0.8,0.6-1.3c0-0.8-1-1.4-3-2.1c-0.2-0.1-0.3-0.1-0.3-0.1
		c-3.2-0.9-4.7-2.3-4.7-4.3c0-1.4,0.5-2.5,1.6-3.4c1.1-0.8,2.5-1.3,4.3-1.3c1.7,0,3.4,0.5,5,1.5l-1.2,2.4c-1.2-0.8-2.6-1.2-4-1.2
		c-0.8,0-1.4,0.1-1.9,0.4c-0.5,0.3-0.7,0.7-0.7,1.2c0,0.5,0.2,0.9,0.7,1.1c0.3,0.2,0.8,0.3,1.4,0.5c0.6,0.2,1.2,0.3,1.6,0.5
		s0.9,0.3,1.4,0.5c0.4,0.2,0.9,0.5,1.4,0.8C200.3,83.8,200.8,84.9,200.8,86.3z"/>
	<path class="st3" d="M216.7,90.8h-2.9v-2c-1.3,1.5-2.9,2.3-5,2.3c-1.6,0-2.9-0.4-3.9-1.3c-1-0.9-1.6-2.1-1.6-3.6s0.6-2.6,1.7-3.3
		c1.1-0.7,2.6-1.1,4.5-1.1h4.1v-0.6c0-2-1.1-3-3.4-3c-1.4,0-2.9,0.5-4.4,1.5l-1.4-2c1.8-1.5,3.9-2.2,6.3-2.2c1.8,0,3.2,0.5,4.4,1.4
		c1.1,0.9,1.7,2.3,1.7,4.3V90.8z M213.5,85.2v-1.3h-3.6c-2.3,0-3.4,0.7-3.4,2.2c0,0.7,0.3,1.3,0.9,1.7c0.6,0.4,1.4,0.6,2.4,0.6
		c1,0,1.9-0.3,2.7-0.9C213.1,86.9,213.5,86.2,213.5,85.2z"/>
	<path class="st3" d="M222.9,96.9c-1.4,0-2.6-0.5-3.8-1.5l1.5-2.6c0.7,0.6,1.4,0.9,2.1,0.9c0.7,0,1.3-0.3,1.7-0.8
		c0.4-0.5,0.7-1.1,0.7-1.7c0-0.3-2-5.5-6.1-15.6h3.4l4.5,11.2l4.5-11.2h3.4l-7.4,18c-0.4,1-1.1,1.8-1.9,2.3
		C224.8,96.6,223.9,96.9,222.9,96.9z"/>
	<path class="st3" d="M257.8,88.8c-1.5,1.5-3.4,2.3-5.7,2.3c-2.3,0-4.2-0.8-5.7-2.3c-1.5-1.5-2.3-3.4-2.3-5.5c0-2.2,0.8-4,2.3-5.5
		c1.5-1.5,3.4-2.3,5.7-2.3c2.3,0,4.2,0.8,5.7,2.3c1.5,1.5,2.3,3.4,2.3,5.5C260.1,85.4,259.4,87.3,257.8,88.8z M248.7,86.8
		c0.9,0.9,2,1.4,3.4,1.4c1.4,0,2.5-0.5,3.4-1.4c0.9-0.9,1.4-2.1,1.4-3.6c0-1.5-0.5-2.7-1.4-3.6c-0.9-0.9-2-1.4-3.4-1.4
		c-1.4,0-2.5,0.5-3.4,1.4c-0.9,0.9-1.4,2.1-1.4,3.6C247.3,84.7,247.8,85.9,248.7,86.8z"/>
	<path class="st3" d="M266.9,82.6v8.2h-3.2V75.7h3.2v2.8c0.5-0.9,1.2-1.7,2.1-2.2c0.9-0.5,1.9-0.8,2.9-0.8c1.7,0,3.1,0.5,4.1,1.6
		c1.1,1,1.6,2.6,1.6,4.5v9.3h-3.2v-8.3c0-2.8-1.2-4.2-3.5-4.2c-1.1,0-2.1,0.4-2.9,1.1C267.3,80.1,266.9,81.2,266.9,82.6z"/>
	<path class="st3" d="M297.1,90.8h-3.6l-5.2-15.2h3.3l3.8,11.5l3.8-11.5h3.3l3.8,11.5l3.8-11.5h3.3l-5.2,15.2h-3.6l-3.6-10.4
		L297.1,90.8z"/>
	<path class="st3" d="M319.1,82.6v8.2H316V69.7h3.2v8.7c0.5-0.9,1.1-1.7,2.1-2.2c0.9-0.5,1.9-0.8,3-0.8c1.7,0,3.1,0.5,4.1,1.6
		c1.1,1,1.6,2.6,1.6,4.5v9.3h-3.2v-8.3c0-2.8-1.2-4.2-3.5-4.2c-1.1,0-2.1,0.4-2.9,1.1C319.6,80.1,319.1,81.2,319.1,82.6z"/>
	<path class="st3" d="M336.3,96.9c-1.4,0-2.6-0.5-3.8-1.5l1.5-2.6c0.7,0.6,1.4,0.9,2.1,0.9s1.3-0.3,1.7-0.8c0.4-0.5,0.7-1.1,0.7-1.7
		c0-0.3-2-5.5-6.1-15.6h3.4l4.5,11.2l4.5-11.2h3.4l-7.4,18c-0.4,1-1.1,1.8-1.9,2.3C338.2,96.6,337.3,96.9,336.3,96.9z"/>
	<path class="st3" d="M374.9,77.4c0,3.3-1.4,5.4-4.3,6.2l5.2,7.2h-4.3l-4.8-6.7h-4.4v6.7H359V70.9h7.4c3,0,5.2,0.5,6.5,1.5
		C374.2,73.5,374.9,75.1,374.9,77.4z M370.4,80.2c0.7-0.6,1-1.5,1-2.8c0-1.3-0.4-2.2-1.1-2.7c-0.7-0.5-2-0.7-3.8-0.7h-4.3v7.1h4.2
		C368.4,81.1,369.7,80.8,370.4,80.2z"/>
	<path class="st3" d="M393.7,70.9v3.2h-10.6v5.3h9.5v3h-9.5v5.3h11v3.2h-14.3V70.9H393.7z"/>
	<path class="st3" d="M401.2,86.3l-2,4.5h-3.6l8.8-19.9h3.6l8.8,19.9h-3.6l-2-4.5H401.2z M409.8,83.2l-3.6-8.2l-3.6,8.2H409.8z"/>
	<path class="st3" d="M419.5,90.8V70.9h3.4v16.7h9.1v3.2H419.5z"/>
	<path class="st3" d="M446.2,82.6v8.2H443V75.7h3.2v2.8c0.5-0.9,1.2-1.7,2.1-2.2c0.9-0.5,1.9-0.8,2.9-0.8c1.7,0,3.1,0.5,4.1,1.6
		c1.1,1,1.6,2.6,1.6,4.5v9.3h-3.2v-8.3c0-2.8-1.2-4.2-3.5-4.2c-1.1,0-2.1,0.4-2.9,1.1C446.6,80.1,446.2,81.2,446.2,82.6z"/>
	<path class="st3" d="M475.6,84.6h-11.9c0.1,1.1,0.6,2,1.5,2.7c0.9,0.7,2,1,3.2,1c1.9,0,3.3-0.6,4.3-1.8l1.8,2
		c-1.6,1.7-3.8,2.5-6.4,2.5c-2.1,0-3.9-0.7-5.4-2.1c-1.5-1.4-2.2-3.3-2.2-5.7c0-2.4,0.8-4.3,2.3-5.7c1.5-1.4,3.3-2.1,5.4-2.1
		c2.1,0,3.8,0.6,5.3,1.9c1.4,1.2,2.2,3,2.2,5.1V84.6z M463.7,82.1h8.7c0-1.3-0.4-2.3-1.2-2.9c-0.8-0.7-1.8-1-3-1
		c-1.2,0-2.2,0.4-3.1,1.1C464.1,80,463.7,80.9,463.7,82.1z"/>
	<path class="st3" d="M482.9,78.2v7.7c0,0.7,0.2,1.3,0.6,1.7c0.4,0.4,0.9,0.6,1.6,0.6c0.7,0,1.3-0.3,2-1l1.3,2.3
		c-1.1,1-2.4,1.5-3.7,1.5s-2.5-0.5-3.5-1.4c-1-0.9-1.4-2.2-1.4-3.8v-7.6h-1.9v-2.6h1.9v-4.8h3.2v4.8h4v2.6H482.9z"/>
	<path class="st3" d="M501.9,82.6v8.2h-3.2V75.7h3.2v2.8c0.5-0.9,1.2-1.7,2.1-2.2c0.9-0.5,1.9-0.8,2.9-0.8c1.7,0,3.1,0.5,4.1,1.6
		c1.1,1,1.6,2.6,1.6,4.5v9.3h-3.2v-8.3c0-2.8-1.2-4.2-3.5-4.2c-1.1,0-2.1,0.4-2.9,1.1S501.9,81.2,501.9,82.6z"/>
	<path class="st3" d="M531.2,84.6h-11.9c0.1,1.1,0.6,2,1.5,2.7c0.9,0.7,2,1,3.2,1c1.9,0,3.3-0.6,4.3-1.8l1.8,2
		c-1.6,1.7-3.8,2.5-6.4,2.5c-2.1,0-3.9-0.7-5.4-2.1c-1.5-1.4-2.2-3.3-2.2-5.7c0-2.4,0.8-4.3,2.3-5.7c1.5-1.4,3.3-2.1,5.4-2.1
		c2.1,0,3.8,0.6,5.3,1.9c1.4,1.2,2.2,3,2.2,5.1V84.6z M519.3,82.1h8.7c0-1.3-0.4-2.3-1.2-2.9c-0.8-0.7-1.8-1-3-1
		c-1.2,0-2.2,0.4-3.1,1.1C519.8,80,519.3,80.9,519.3,82.1z"/>
	<path class="st3" d="M545.3,83.9v-8.2h3.2v15.2h-3.2v-2.8c-0.5,0.9-1.2,1.7-2.1,2.2c-0.9,0.5-1.9,0.8-2.9,0.8
		c-1.7,0-3.1-0.5-4.1-1.6c-1.1-1-1.6-2.6-1.6-4.5v-9.3h3.2V84c0,2.8,1.2,4.2,3.5,4.2c1.1,0,2.1-0.4,2.9-1.1
		C544.9,86.3,545.3,85.3,545.3,83.9z"/>
	<path class="st3" d="M557,78.2v7.7c0,0.7,0.2,1.3,0.6,1.7c0.4,0.4,0.9,0.6,1.6,0.6c0.7,0,1.3-0.3,2-1l1.3,2.3
		c-1.1,1-2.4,1.5-3.7,1.5s-2.5-0.5-3.5-1.4c-1-0.9-1.4-2.2-1.4-3.8v-7.6h-1.9v-2.6h1.9v-4.8h3.2v4.8h4v2.6H557z"/>
	<path class="st3" d="M573,78.7c-1.6,0-2.8,0.5-3.6,1.5c-0.8,1-1.2,2.4-1.2,4.1v6.5H565V75.7h3.2v3.1c0.5-0.9,1.2-1.7,2.1-2.3
		c0.9-0.6,1.8-0.9,2.8-0.9l0,3.2C573.1,78.7,573,78.7,573,78.7z"/>
	<path class="st3" d="M588.5,90.8h-2.9v-2c-1.3,1.5-2.9,2.3-5,2.3c-1.6,0-2.9-0.4-3.9-1.3c-1-0.9-1.6-2.1-1.6-3.6s0.6-2.6,1.7-3.3
		c1.1-0.7,2.6-1.1,4.5-1.1h4.1v-0.6c0-2-1.1-3-3.4-3c-1.4,0-2.9,0.5-4.4,1.5l-1.4-2c1.8-1.5,3.9-2.2,6.3-2.2c1.8,0,3.2,0.5,4.4,1.4
		c1.1,0.9,1.7,2.3,1.7,4.3V90.8z M585.3,85.2v-1.3h-3.6c-2.3,0-3.4,0.7-3.4,2.2c0,0.7,0.3,1.3,0.9,1.7c0.6,0.4,1.4,0.6,2.4,0.6
		c1,0,1.9-0.3,2.7-0.9C584.9,86.9,585.3,86.2,585.3,85.2z"/>
	<path class="st3" d="M596.1,90.8h-3.2V69.7h3.2V90.8z"/>
	<path class="st3" d="M600.9,72.6c-0.4-0.4-0.6-0.9-0.6-1.4c0-0.6,0.2-1,0.6-1.4c0.4-0.4,0.9-0.6,1.4-0.6s1,0.2,1.4,0.6
		c0.4,0.4,0.6,0.9,0.6,1.4c0,0.6-0.2,1-0.6,1.4c-0.4,0.4-0.9,0.6-1.4,0.6S601.3,73,600.9,72.6z M603.9,90.8h-3.2V75.7h3.2V90.8z"/>
	<path class="st3" d="M612.5,78.2v7.7c0,0.7,0.2,1.3,0.6,1.7c0.4,0.4,0.9,0.6,1.6,0.6c0.7,0,1.3-0.3,2-1l1.3,2.3
		c-1.1,1-2.4,1.5-3.7,1.5s-2.5-0.5-3.5-1.4c-1-0.9-1.4-2.2-1.4-3.8v-7.6h-1.9v-2.6h1.9v-4.8h3.2v4.8h4v2.6H612.5z"/>
	<path class="st3" d="M622.4,96.9c-1.4,0-2.6-0.5-3.8-1.5l1.5-2.6c0.7,0.6,1.4,0.9,2.1,0.9c0.7,0,1.3-0.3,1.7-0.8
		c0.4-0.5,0.7-1.1,0.7-1.7c0-0.3-2-5.5-6.1-15.6h3.4l4.5,11.2l4.5-11.2h3.4l-7.4,18c-0.4,1-1.1,1.8-1.9,2.3
		C624.3,96.6,623.4,96.9,622.4,96.9z"/>
	<path class="st3" d="M647.8,82.6v8.2h-3.2V75.7h3.2v2.8c0.5-0.9,1.1-1.7,2.1-2.2c0.9-0.5,1.9-0.8,3-0.8c2.4,0,4,1,4.9,3
		c1.5-2,3.4-3,5.6-3c1.7,0,3.1,0.5,4.1,1.6c1.1,1,1.6,2.6,1.6,4.5v9.3h-3.2v-8.3c0-2.8-1.2-4.2-3.5-4.2c-1.1,0-2,0.3-2.8,1
		c-0.8,0.7-1.2,1.7-1.3,3v8.4h-3.2v-8.3c0-1.4-0.3-2.5-0.8-3.2c-0.5-0.7-1.3-1-2.4-1s-2.1,0.4-2.9,1.1
		C648.2,80.1,647.8,81.2,647.8,82.6z"/>
	<path class="st3" d="M685.8,90.8h-2.9v-2c-1.3,1.5-2.9,2.3-5,2.3c-1.6,0-2.9-0.4-3.9-1.3c-1-0.9-1.6-2.1-1.6-3.6s0.6-2.6,1.7-3.3
		c1.1-0.7,2.6-1.1,4.5-1.1h4.1v-0.6c0-2-1.1-3-3.4-3c-1.4,0-2.9,0.5-4.4,1.5l-1.4-2c1.8-1.5,3.9-2.2,6.3-2.2c1.8,0,3.2,0.5,4.4,1.4
		c1.1,0.9,1.7,2.3,1.7,4.3V90.8z M682.6,85.2v-1.3h-3.6c-2.3,0-3.4,0.7-3.4,2.2c0,0.7,0.3,1.3,0.9,1.7c0.6,0.4,1.4,0.6,2.4,0.6
		c1,0,1.9-0.3,2.7-0.9C682.3,86.9,682.6,86.2,682.6,85.2z"/>
	<path class="st3" d="M694,78.2v7.7c0,0.7,0.2,1.3,0.6,1.7c0.4,0.4,0.9,0.6,1.6,0.6c0.7,0,1.3-0.3,2-1l1.3,2.3
		c-1.1,1-2.4,1.5-3.7,1.5c-1.4,0-2.5-0.5-3.5-1.4c-1-0.9-1.4-2.2-1.4-3.8v-7.6h-1.9v-2.6h1.9v-4.8h3.2v4.8h4v2.6H694z"/>
	<path class="st3" d="M706,78.2v7.7c0,0.7,0.2,1.3,0.6,1.7c0.4,0.4,0.9,0.6,1.6,0.6c0.7,0,1.3-0.3,2-1l1.3,2.3
		c-1.1,1-2.4,1.5-3.7,1.5s-2.5-0.5-3.5-1.4c-1-0.9-1.4-2.2-1.4-3.8v-7.6h-1.9v-2.6h1.9v-4.8h3.2v4.8h4v2.6H706z"/>
	<path class="st3" d="M728.1,84.6h-11.9c0.1,1.1,0.6,2,1.5,2.7c0.9,0.7,2,1,3.2,1c1.9,0,3.3-0.6,4.3-1.8l1.8,2
		c-1.6,1.7-3.8,2.5-6.4,2.5c-2.1,0-3.9-0.7-5.4-2.1c-1.5-1.4-2.2-3.3-2.2-5.7c0-2.4,0.8-4.3,2.3-5.7c1.5-1.4,3.3-2.1,5.4-2.1
		c2.1,0,3.8,0.6,5.3,1.9c1.4,1.2,2.2,3,2.2,5.1V84.6z M716.2,82.1h8.7c0-1.3-0.4-2.3-1.2-2.9c-0.8-0.7-1.8-1-3-1
		c-1.2,0-2.2,0.4-3.1,1.1C716.6,80,716.2,80.9,716.2,82.1z"/>
	<path class="st3" d="M739.5,78.7c-1.6,0-2.8,0.5-3.6,1.5c-0.8,1-1.2,2.4-1.2,4.1v6.5h-3.2V75.7h3.2v3.1c0.5-0.9,1.2-1.7,2.1-2.3
		c0.9-0.6,1.8-0.9,2.8-0.9l0,3.2C739.6,78.7,739.6,78.7,739.5,78.7z"/>
	<path class="st3" d="M753.7,86.3c0,1.4-0.5,2.6-1.6,3.5c-1,0.9-2.4,1.3-4,1.3c-1.1,0-2.2-0.2-3.4-0.6c-1.2-0.4-2.2-1-3.1-1.7
		l1.5-2.5c1.8,1.3,3.5,2,5.1,2c0.7,0,1.3-0.2,1.7-0.5c0.4-0.3,0.6-0.8,0.6-1.3c0-0.8-1-1.4-3-2.1c-0.2-0.1-0.3-0.1-0.3-0.1
		c-3.2-0.9-4.7-2.3-4.7-4.3c0-1.4,0.5-2.5,1.6-3.4c1.1-0.8,2.5-1.3,4.3-1.3c1.7,0,3.4,0.5,5,1.5l-1.2,2.4c-1.2-0.8-2.6-1.2-4-1.2
		c-0.8,0-1.4,0.1-1.9,0.4c-0.5,0.3-0.7,0.7-0.7,1.2c0,0.5,0.2,0.9,0.7,1.1c0.3,0.2,0.8,0.3,1.4,0.5c0.6,0.2,1.2,0.3,1.6,0.5
		c0.5,0.2,0.9,0.3,1.4,0.5c0.4,0.2,0.9,0.5,1.4,0.8C753.2,83.8,753.7,84.9,753.7,86.3z"/>
</g>
</svg>
