<?xml version="1.0" encoding="utf-8"?>
<!-- Generator: Adobe Illustrator 16.0.0, SVG Export Plug-In . SVG Version: 6.00 Build 0)  -->
<!DOCTYPE svg PUBLIC "-//W3C//DTD SVG 1.1//EN" "http://www.w3.org/Graphics/SVG/1.1/DTD/svg11.dtd">
<svg version="1.1" id="Layer_1" xmlns="http://www.w3.org/2000/svg" xmlns:xlink="http://www.w3.org/1999/xlink" x="0px" y="0px"
	 width="480px" height="480px" viewBox="0 0 480 480" enable-background="new 0 0 480 480" xml:space="preserve">
<g>
	<polygon points="65.57,77.77 65.57,285.691 380.412,285.691 335.075,143.848 331.485,175.758 361.418,260.267 93.223,273.99 
		80.992,103.828 226.183,114.997 242.137,103.297 	"/>
	<path d="M374.298,296.062H67.963l-36.695,53.716l424.932-13.298L374.298,296.062z M72.378,306.958l298.888-5.312l44.676,22.331
		L55.36,340.997L72.378,306.958z"/>
	<path d="M352.757,74.577l6.383-3.723l-19.145-36.166L312.87,90.532c0,0-7.446,1.33-11.555,5.924
		c5.714,0.228,16.872-1.138,16.872-1.138l21.806-45.738L352.757,74.577z"/>
	<path d="M259.688,100.634c0,0,1.197,101.048,5.145,102.797c-0.93,4.422,34.743,7.84,41.098,3.436
		c2.021,1.157,9.879-73.012,12.405-104.657C296.584,103.163,259.688,100.634,259.688,100.634z"/>
	<path fill="#C6C4C4" d="M242.003,95.317c0,0-46.534-22.269-18.015-83.097c0,0,55.245,5.385,39.953,74.854l-2.26,0.533
		c0,0,7.58-48.264-32.309-62.224c-14.121,33.395,7.096,61.26,13.694,69.269C244.295,96.144,242.003,95.317,242.003,95.317z"/>
	<path fill="#C6C4C4" d="M325.103,83.094l-2.091,4.864c3.742,1.455,1.41,4.439,1.689,4.04c-7.978,1.727-41.479,6.978-69.003-6.382
		c-0.104-0.472-0.865-2.428,0.002-2.792c0.972-0.41,3.987-0.4,3.987-0.401l-0.003-6.246l-4.386,0.264
		c0,0-1.796-31.709-20.079-40.854c13.131,19.309,12.299,72.765,16.375,167.394c0.599,5.092,4.295,11.706,8.09,13.854
		c11.966,4.906,33.506,5.384,46.669,4.187c6.381-2.192,8.887-6.331,10.569-10.366c4.773-33.898,12.963-88.738,16.953-121.85
		C334.248,85.724,325.103,83.094,325.103,83.094z M310.341,206.434c-1.049,2.008-4.597,5.406-6.78,6.017
		c-10.769,1.106-28.862,0.355-37.023-2.393c-2.337-1.364-6.049-5.792-6.853-8.373c-1.994-26.723-2.394-75.784-4.786-107.961
		c25.13,11.436,68.207,6.25,68.207,6.25S315.128,175.761,310.341,206.434z"/>
	<path fill="#C6C4C4" d="M267.666,75.691c0,1.197-1.127,4.472-1.127,5.934c15.486-0.26,29.048-1.02,46.996,3.369
		c0.665-1.861,1.083-2.32,1.985-5.145C296.782,74.627,280.23,74.973,267.666,75.691z"/>
	<path fill="#C6C4C4" d="M241.717,205.676c-11.414,2.348-14.559,6.579-12.962,10.568c8.042,23.722,102.464,22.914,109.888,8.571
		c1.197-8.97-16.154-14.753-16.154-14.753s7.379,7.975,3.391,11.52c-21.938,7.816-79.354,4.286-88.151-8.927
		C237.35,210.851,236.817,209.124,241.717,205.676z"/>
</g>
<rect x="68.572" y="382.006" fill="none" width="350.013" height="80.998"/>
<text transform="matrix(1 0 0 1 68.5723 431.4053)" font-family="'OpenSans-Semibold'" font-size="65">Endzone.io</text>
</svg>
