<svg xmlns="http://www.w3.org/2000/svg" xmlns:xlink="http://www.w3.org/1999/xlink" preserveAspectRatio="xMidYMid" width="1200" height="1200" viewBox="0 0 1200 1200">
  <defs>
    <style>
      .cls-1 {
        fill: #0d3d47;
        filter: url(#drop-shadow-1);
        fill-rule: evenodd;
      }
    </style>

    <filter id="drop-shadow-1" filterUnits="userSpaceOnUse">
      <feOffset dy="5" in="SourceAlpha"/>
      <feGaussianBlur stdDeviation="2.236" result="dropBlur"/>
      <feFlood flood-color="#2b1860" flood-opacity="0.22"/>
      <feComposite operator="in" in2="dropBlur" result="dropShadowComp"/>
      <feComposite in="SourceGraphic" result="shadowed"/>
    </filter>
  </defs>
  <path d="M661.086,375.045 L1092.013,375.045 C983.003,375.045 894.632,463.675 894.632,573.005 L894.632,573.005 C894.632,573.006 894.632,573.006 894.632,573.007 C894.632,735.928 762.945,868.004 600.499,868.004 C438.054,868.004 306.367,735.928 306.367,573.007 C306.367,573.006 306.367,573.006 306.367,573.005 L306.367,573.005 C306.367,463.675 217.995,375.045 108.985,375.045 L538.960,375.045 C558.646,373.623 579.060,373.000 600.000,373.000 C620.940,373.000 641.370,373.623 661.086,375.045 Z" class="cls-1"/>
</svg>
