<svg xmlns="http://www.w3.org/2000/svg" xmlns:xlink="http://www.w3.org/1999/xlink" preserveAspectRatio="xMidYMid" width="1279" height="886" viewBox="0 0 1279 886">
  <defs>
    <style>
      .cls-1 {
        fill: #fff;
        filter: url(#filter-chain-1);
        fill-rule: evenodd;
      }
    </style>

    <filter id="filter-chain-1" filterUnits="userSpaceOnUse">
      <feOffset dy="2" in="SourceAlpha"/>
      <feGaussianBlur stdDeviation="1.414" result="dropBlur"/>
      <feFlood flood-color="#020202" flood-opacity="0.1"/>
      <feComposite operator="in" in2="dropBlur" result="dropShadowComp"/>
      <feComposite in="SourceGraphic" result="shadowed"/>
      <feOffset dy="2" in="SourceAlpha"/>
      <feGaussianBlur stdDeviation="1.414" result="innerShadowBlur"/>
      <feFlood flood-color="#fff" flood-opacity="0.24"/>
      <feComposite operator="out" in2="innerShadowBlur"/>
      <feComposite operator="in" in2="SourceAlpha"/>
      <feBlend mode="overlay" in2="shadowed" result="innerShadow"/>
    </filter>
  </defs>
  <path d="M1242.764,299.555 C1231.608,316.981 1212.750,326.499 1193.483,326.499 C1182.710,326.499 1171.800,323.517 1162.048,317.278 C1005.142,216.909 823.256,163.853 636.052,163.853 C451.549,163.853 271.891,215.492 116.507,313.189 C89.189,330.358 53.116,322.145 35.936,294.831 C18.758,267.518 26.979,231.452 54.299,214.273 C228.341,104.845 429.510,47.008 636.052,47.008 C845.618,47.008 1049.284,106.429 1225.036,218.857 C1252.212,236.242 1260.155,272.372 1242.764,299.555 ZM215.559,370.644 C285.353,332.490 359.975,304.062 437.349,286.154 C468.771,278.867 500.176,298.457 507.452,329.895 C514.729,361.328 495.146,392.712 463.704,399.986 C396.706,415.496 332.076,440.119 271.623,473.172 C262.723,478.030 253.114,480.342 243.643,480.342 C222.969,480.342 202.940,469.353 192.321,449.934 C176.839,421.622 187.243,386.122 215.559,370.644 ZM375.980,525.639 C398.809,515.986 422.415,507.533 446.142,500.512 C477.070,491.335 509.593,509.013 518.752,539.956 C527.912,570.895 510.248,603.399 479.303,612.553 C459.759,618.338 440.309,625.301 421.497,633.258 C414.071,636.398 406.353,637.887 398.764,637.887 C375.992,637.887 354.350,624.496 344.923,602.203 C332.355,572.487 346.255,538.207 375.980,525.639 ZM642.746,618.810 C610.384,618.810 583.906,592.334 583.906,559.973 L583.906,245.585 C583.906,213.225 610.384,186.749 642.746,186.749 C675.111,186.749 701.590,213.225 701.590,245.585 L701.590,559.973 C701.590,592.334 675.111,618.810 642.746,618.810 ZM644.283,677.970 C687.576,677.970 722.797,713.187 722.797,756.473 C722.797,799.759 687.576,834.976 644.283,834.976 C600.992,834.976 565.770,799.759 565.770,756.473 C565.770,713.187 600.992,677.970 644.283,677.970 ZM839.443,504.655 C858.549,510.754 877.613,517.812 896.113,525.634 C925.835,538.202 939.741,572.478 927.172,602.198 C917.746,624.487 896.098,637.878 873.329,637.878 C865.740,637.878 858.027,636.393 850.596,633.254 C835.350,626.808 819.639,620.987 803.897,615.967 C773.156,606.152 756.191,573.279 766.005,542.538 C775.818,511.802 808.686,494.835 839.443,504.655 ZM764.751,329.913 C772.031,298.480 803.426,278.899 834.859,286.177 C915.081,304.755 992.255,334.605 1064.237,374.899 C1092.395,390.661 1102.441,426.264 1086.676,454.419 C1075.971,473.541 1056.105,484.314 1035.638,484.314 C1025.976,484.314 1016.182,481.912 1007.148,476.856 C944.797,441.954 877.956,416.099 808.493,400.008 C777.054,392.726 757.468,361.346 764.751,329.913 Z" class="cls-1"/>
</svg>
