<?xml version="1.0" encoding="utf-8"?>
<!-- Generator: Adobe Illustrator 19.0.0, SVG Export Plug-In . SVG Version: 6.00 Build 0)  -->
<svg version="1.1" id="Layer_1" xmlns="http://www.w3.org/2000/svg" xmlns:xlink="http://www.w3.org/1999/xlink" x="0px" y="0px"
	 viewBox="0 0 328.5 328.5" style="enable-background:new 0 0 328.5 328.5;" xml:space="preserve">
<g id="XMLID_21_">
	<circle id="XMLID_54_" style="fill:#31A4BF;" cx="164.3" cy="164.3" r="141.3"/>
	<path id="XMLID_79_" style="opacity:0.8;fill:#FFFFFF;" d="M255.1,155.9H254l-28.1,0.1l-1.4,0c-4.3,0.3-7.7,4-7.7,8.4
		c0,4.6,3.8,8.4,8.4,8.4h30.1c4.3-0.4,7.7-4,7.7-8.4C263,159.8,259.6,156.1,255.1,155.9z"/>
	<path id="XMLID_78_" style="fill:#FFFFFF;" d="M214.5,129.8L214.5,129.8l20.2-20.2l1.1-1.1c2.8-3.3,2.6-8.3-0.5-11.4
		c-3.2-3.2-8.2-3.3-11.6-0.4l-0.8,0.8l-19.8,19.9l-0.9,1c-2.8,3.3-2.7,8.2,0.5,11.4C205.9,133,211.2,133,214.5,129.8z"/>
	<path id="XMLID_77_" style="fill:#FFFFFF;" d="M168,69.4c-4.5,0-8.2,3.5-8.4,7.9l0,1.1l0.1,28v1.4c0.4,4.3,4,7.7,8.4,7.7
		c4.6,0,8.4-3.8,8.4-8.4v0l0-28.5v-1.5C176.1,72.7,172.4,69.4,168,69.4z"/>
	<path id="XMLID_58_" style="opacity:0.1;fill:#FFFFFF;" d="M133.5,117.9l-20.2-20.1l-1.1-1.1c-3.3-2.8-8.3-2.6-11.4,0.5
		c-3.2,3.2-3.3,8.2-0.4,11.5l0.8,0.8l19.9,19.8l1,1c3.3,2.8,8.3,2.6,11.4-0.5C136.8,126.5,136.8,121.2,133.5,117.9L133.5,117.9z"/>
	<path id="XMLID_57_" style="opacity:0.2;fill:#FFFFFF;" d="M111.4,172.6c4.3-0.3,7.7-4,7.7-8.4c0-4.6-3.8-8.4-8.4-8.4H80.7
		c-4.3,0.4-7.7,4-7.7,8.4c0,4.5,3.5,8.1,7.9,8.4H82l28.1-0.1L111.4,172.6L111.4,172.6z"/>
	<path id="XMLID_56_" style="opacity:0.3;fill:#FFFFFF;" d="M121.6,198.8L121.6,198.8l-20.2,20.2l-1.1,1.1
		c-2.8,3.3-2.6,8.3,0.5,11.4c3.2,3.2,8.2,3.3,11.6,0.4l0.8-0.8l19.8-19.9l1-1c2.8-3.3,2.6-8.3-0.5-11.4
		C130.2,195.5,124.9,195.5,121.6,198.8z"/>
	<path id="XMLID_55_" style="opacity:0.5;fill:#FFFFFF;" d="M176.4,220.8c-0.3-4.3-4-7.7-8.4-7.7c-4.6,0-8.4,3.8-8.4,8.4v0l0,28.5
		l0,1.5c0.4,4.3,4,7.7,8.4,7.7c4.5,0,8.1-3.5,8.4-7.9v-1.1l-0.1-28V220.8z"/>
	<path id="XMLID_53_" style="opacity:0.7;fill:#FFFFFF;" d="M234.8,219.1l-19.9-19.8l-1-1c-3.3-2.8-8.3-2.7-11.4,0.5
		c-3.3,3.3-3.3,8.6,0,11.9l0,0l20.1,20.1l1.1,1.1c3.3,2.8,8.3,2.6,11.4-0.5c3.2-3.2,3.3-8.2,0.4-11.5L234.8,219.1z"/>
</g>
</svg>
