<?xml version="1.0" encoding="utf-8"?>
<!-- Generator: Adobe Illustrator 19.0.0, SVG Export Plug-In . SVG Version: 6.00 Build 0)  -->
<svg version="1.1" id="Layer_1" xmlns="http://www.w3.org/2000/svg" xmlns:xlink="http://www.w3.org/1999/xlink" x="0px" y="0px"
	 viewBox="0 0 328.5 328.5" style="enable-background:new 0 0 328.5 328.5;" xml:space="preserve">
<g id="XMLID_1_">
	<circle id="XMLID_91_" style="fill:#31A4BF;" cx="164.3" cy="163.2" r="141.3"/>
	<g id="XMLID_3_">
		<path id="XMLID_16_" style="fill:#FFFFFF;" d="M243,161.4l0.3-0.3c1.7-1.3,2.3-3.3,1.7-5.3c-0.7-2-2.3-3.3-4.6-3.3H209v-27.7
			c10.2-10.9,21.5-18.5,33.7-22.5l0.3-0.3c1.7-1.3,2.3-3.3,1.7-5.3c-0.7-2-2.3-3.3-4.6-3.3h-31.4c-1-9.6-9.2-17.2-19.5-17.2h-49.5
			c-9.9,0-18.2,7.6-19.5,17.2h-32c-2,0-4,1.3-4.6,3.3c-0.7,2,0,4,1.7,5.3l0.3,0.3c12.6,4.3,23.8,11.9,34.3,23.1v27.1H88.1
			c-2,0-4,1.3-4.6,3.3c-0.7,2,0,4,1.7,5.3l0.3,0.3c12.6,4.3,23.8,11.9,34.3,23.1v79.3c0,10.9,8.6,19.5,19.5,19.5h4.6
			c1.7,4,5.3,7.3,9.6,8.3v15.2h6.9v-14.9h7.6v14.9h6.9v-15.2c4.3-1,7.9-4,9.6-8.3h5c10.9,0,19.5-8.6,19.5-19.5V243
			c10.2-10.9,21.5-18.5,33.7-22.5l0.3-0.3c1.7-1.3,2.3-3.3,1.7-5.3s-2.3-3.3-4.6-3.3h-31.4v-27.7C219.9,173,230.8,165.7,243,161.4z
			 M202.4,263.8c0,6.9-5.6,12.6-12.6,12.6h-50.2c-6.9,0-12.6-5.6-12.6-12.6V96c0-6.9,5.6-12.6,12.6-12.6h50.2
			c6.9,0,12.6,5.6,12.6,12.6V263.8z"/>
		<path id="XMLID_13_" style="fill:#FFFFFF;" d="M164.8,145.2c11.9,0,21.5-9.6,21.5-21.5c0-11.9-9.6-21.5-21.5-21.5
			c-11.9,0-21.5,9.6-21.5,21.5C143.3,135.3,152.9,145.2,164.8,145.2z M164.8,108.9c7.9,0,14.5,6.6,14.5,14.5s-6.6,14.5-14.5,14.5
			c-7.9,0-14.5-6.6-14.5-14.5S156.8,108.9,164.8,108.9z"/>
		<path id="XMLID_12_" style="fill:#FFFFFF;" d="M164.8,93.7c-10.6,0-20.5,5.6-26.1,14.9l3,1.7c4.6-8.3,13.5-13.2,23.1-13.2
			s18.2,5,23.1,13.2l3-1.7C185.2,99.3,175.3,93.7,164.8,93.7z"/>
		<path id="XMLID_9_" style="fill:#FFFFFF;" d="M164.8,204.3c11.9,0,21.5-9.6,21.5-21.5c0-11.9-9.6-21.5-21.5-21.5
			c-11.9,0-21.5,9.6-21.5,21.5C143.3,194.4,152.9,204.3,164.8,204.3z M164.8,168c7.9,0,14.5,6.6,14.5,14.5c0,7.9-6.6,14.5-14.5,14.5
			c-7.9,0-14.5-6.6-14.5-14.5C150.2,174.6,156.8,168,164.8,168z"/>
		<path id="XMLID_8_" style="fill:#FFFFFF;" d="M164.8,152.8c-10.6,0-20.5,5.6-26.1,14.9l3,1.7c4.6-8.3,13.5-13.2,23.1-13.2
			s18.2,5,23.1,13.2l3-1.7C185.2,158.4,175.3,152.8,164.8,152.8z"/>
		<path id="XMLID_5_" style="fill:#FFFFFF;" d="M164.8,220.2c-11.9,0-21.5,9.6-21.5,21.5s9.6,21.5,21.5,21.5
			c11.9,0,21.5-9.6,21.5-21.5C186.2,229.8,176.7,220.2,164.8,220.2z M164.8,256.5c-7.9,0-14.5-6.6-14.5-14.5
			c0-7.9,6.6-14.5,14.5-14.5c7.9,0,14.5,6.6,14.5,14.5C179.3,249.9,172.7,256.5,164.8,256.5z"/>
		<path id="XMLID_4_" style="fill:#FFFFFF;" d="M164.8,211.9c-10.6,0-20.5,5.6-26.1,14.9l3,1.7c4.6-8.3,13.5-13.2,23.1-13.2
			s18.2,5,23.1,13.2l3-1.7C185.2,217.5,175.3,211.9,164.8,211.9z"/>
	</g>
	<g id="XMLID_20_">
		<path id="XMLID_43_" style="fill:#FFFFFF;" d="M85.5,221.3c12.6,4.3,23.8,11.9,34.3,23.1v7.2c0.5-1.1,0.8-2.3,1-3.6
			c1.6-11.9,1.8-22.5,5.9-31.6c-2.5-2.9-4.1-6.6-4.5-10.5c-1,2-1.8,4.1-2.1,6.4h-32c-2,0-4,1.3-4.6,3.3c-0.7,2,0,4,1.7,5.3
			L85.5,221.3z"/>
	</g>
</g>
</svg>
