<svg id="Layer_1" data-name="Layer 1" xmlns="http://www.w3.org/2000/svg" viewBox="0 0 360 358.72"><defs><style>.cls-1{fill:#fff;}</style></defs><title>zero_rating</title><path d="M413.54,69.64A22.48,22.48,0,0,1,436,92.09V405.91a22.47,22.47,0,0,1-22.46,22.45H98.45A22.46,22.46,0,0,1,76,405.91V92.09A22.47,22.47,0,0,1,98.45,69.64h315.1Zm0,6.18H98.45A16.17,16.17,0,0,0,82.18,92.09V405.91a16.16,16.16,0,0,0,16.27,16.27h315.1a16.17,16.17,0,0,0,16.28-16.27V92.09a16.18,16.18,0,0,0-16.28-16.28h0Zm-7.38,2.85A19.31,19.31,0,0,1,425.52,98V398.49a19.31,19.31,0,0,1-19.36,19.36H105.83a19.31,19.31,0,0,1-19.36-19.36V98a19.31,19.31,0,0,1,19.36-19.36H406.17Z" transform="translate(-76 -69.64)"/><path class="cls-1" d="M395.48,172.51C391,167.42,366.6,142,366.6,142l-5.69,6.13c-5,5.39-102.42,102.49-125.79,125.77L235,185.81c-1.94-27.1-27.22-27.5-27.22-27.5H162.84s-25.28.4-27.22,27.5c0,0,.08,175.83.14,181,15,0.31-4,.31,8,0.31h83c12.05,0-3.92,0,9.2,0,0-1-.17-37-0.17-37L390.67,177.29Zm-184.81,89.1H159.73V194.18h50.94v67.43ZM249.82,304l-14.3-14.77,11-11.21,14.3,14.79Zm19.44-19.73L255,269.51l11-11.21,14.3,14.78Zm20-19.89-14.3-14.78,11-11.21,14.3,14.78Zm19.44-20.13-14.29-14.78,11-11.21,14.3,14.78Zm20-19.53L314.41,210l11-11.2,14.3,14.78Zm18.46-18.53-14.29-14.78,11-11.21L358.21,195Zm20-19.53-14.3-14.78,11-11.2,14.3,14.78Z" transform="translate(-76 -69.64)"/></svg>