<?xml version="1.0" encoding="utf-8"?>
<!-- Generator: Adobe Illustrator 19.2.1, SVG Export Plug-In . SVG Version: 6.00 Build 0)  -->
<svg version="1.1" id="Layer_1" xmlns="http://www.w3.org/2000/svg" xmlns:xlink="http://www.w3.org/1999/xlink" x="0px" y="0px"
	 viewBox="0 0 768 116" style="enable-background:new 0 0 768 116;" xml:space="preserve">
<style type="text/css">
	.st0{fill:#0098C5;stroke:#FFFFFF;stroke-width:0.4872;stroke-miterlimit:10;}
	.st1{fill:#8ED5E9;}
	.st2{fill:#FFFFFF;}
</style>
<g>
	<g>
		<path class="st0" d="M65.7,31.6C59.3,25,50.3,20.8,40.3,20.8c-10,0-19,4.2-25.4,10.8l5.3,5.3c5-5.3,12.2-8.7,20.1-8.7
			c7.9,0,15.1,3.3,20.1,8.7L65.7,31.6z"/>
		<path class="st0" d="M50.1,46.9l5.3-5.3c-3.7-4-9.1-6.6-15.1-6.6c-6,0-11.3,2.5-15.1,6.6l5.3,5.3c2.4-2.7,5.9-4.4,9.8-4.4
			C44.2,42.5,47.7,44.2,50.1,46.9z"/>
		<path class="st0" d="M9.4,26.6c7.8-8,18.7-13.1,30.8-13.1c12.1,0,23.1,5,30.8,13.1l5.4-5.4c-9.2-9.4-22-15.3-36.3-15.3
			S13.2,11.8,4,21.2L9.4,26.6z"/>
	</g>
	<g>
		<path class="st1" d="M65.8,29.7c-6.4-6.7-15.4-10.8-25.4-10.8c-10,0-19,4.2-25.4,10.8l5.3,5.3c5-5.3,12.2-8.7,20.1-8.7
			c7.9,0,15.1,3.3,20.1,8.7L65.8,29.7z"/>
		<path class="st1" d="M50.2,45l5.3-5.3c-3.7-4-9.1-6.6-15.1-6.6c-6,0-11.3,2.5-15.1,6.6l5.3,5.3c2.4-2.7,5.9-4.4,9.8-4.4
			C44.3,40.6,47.8,42.3,50.2,45z"/>
		<path class="st1" d="M9.6,24.7c7.8-8,18.7-13.1,30.8-13.1c12.1,0,23.1,5,30.8,13.1l5.4-5.4C67.5,9.9,54.7,4,40.4,4
			C26.2,4,13.3,9.9,4.1,19.3L9.6,24.7z"/>
	</g>
	<ellipse class="st2" cx="40.2" cy="52.6" rx="6.2" ry="6.1"/>
	<path class="st2" d="M46.6,42.1c-3.7-2.1-8.9-2.1-12.7,0.2c0-6.4,0-29.4,0-37.9c3.6-0.4,8.7-0.5,12.7,0
		C46.6,13.3,46.6,34,46.6,42.1z"/>
	<g>
		<path class="st2" d="M106.2,18.1c-0.9,0.7-1.3,1.7-1.3,2.9c0,1.2,0.5,2.2,1.6,2.9c1.1,0.7,3.6,1.6,7.6,2.6c4,1,7.1,2.5,9.3,4.4
			c2.2,2,3.3,4.8,3.3,8.6c0,3.8-1.4,6.8-4.2,9.2c-2.8,2.3-6.5,3.5-11.1,3.5c-6.6,0-12.6-2.5-17.9-7.4l5.6-6.8
			c4.5,4,8.7,5.9,12.5,5.9c1.7,0,3.1-0.4,4.1-1.1c1-0.7,1.5-1.7,1.5-3s-0.5-2.3-1.6-3c-1-0.7-3.1-1.5-6.2-2.2
			c-4.9-1.2-8.5-2.7-10.7-4.5c-2.3-1.9-3.4-4.8-3.4-8.8c0-4,1.4-7,4.3-9.2c2.9-2.2,6.4-3.2,10.7-3.2c2.8,0,5.6,0.5,8.4,1.4
			c2.8,1,5.2,2.3,7.3,4.1l-4.7,6.8c-3.6-2.8-7.4-4.1-11.3-4.1C108.3,17,107.1,17.3,106.2,18.1z"/>
		<path class="st2" d="M165.5,51.7l-3.9-9.1h-17.6l-3.9,9.1h-10l18.1-41.9h9.1l18.1,41.9H165.5z M152.9,22.2l-5.3,12.2h10.5
			L152.9,22.2z"/>
		<path class="st2" d="M194.8,36.4l10.7-26.7h10.1l-16.9,41.9h-7.9L173.9,9.7h10.1L194.8,36.4z"/>
		<path class="st2" d="M252.3,9.7v8.3h-20.9v8.6h18.8v8h-18.8v8.7H253v8.3h-30.9V9.7H252.3z"/>
		<path class="st2" d="M297.9,17.8v33.8h-9.4V17.8h-11.9V9.7h33.1v8.1H297.9z"/>
		<path class="st2" d="M344.2,9.7h9.4v41.9h-9.4V35.2h-16.7v16.5h-9.4V9.7h9.4v17.5h16.7V9.7z"/>
		<path class="st2" d="M395.6,9.7v8.3h-20.9v8.6h18.8v8h-18.8v8.7h21.5v8.3h-30.9V9.7H395.6z"/>
		<path class="st2" d="M423.4,9.7h9.4v41.9h-9.4V9.7z"/>
		<path class="st2" d="M473.9,9.7h9.4v41.9h-9.4l-20-26.3v26.3h-9.4V9.7h8.8l20.6,27V9.7z"/>
		<path class="st2" d="M512.9,17.8v33.8h-9.4V17.8h-11.9V9.7h33.1v8.1H512.9z"/>
		<path class="st2" d="M563.3,9.7v8.3h-20.9v8.6h18.8v8h-18.8v8.7H564v8.3h-30.9V9.7H563.3z"/>
		<path class="st2" d="M607.9,23.6c0,6.7-2.7,11.1-8,13l10.6,15H599l-9.3-13.4h-6.5v13.4h-9.4V9.7h15.9c6.5,0,11.2,1.1,14,3.3
			C606.5,15.2,607.9,18.8,607.9,23.6z M596.6,28.6c1.2-1,1.7-2.7,1.7-4.9c0-2.3-0.6-3.8-1.8-4.6c-1.2-0.8-3.3-1.3-6.3-1.3h-7v12.4
			h6.8C593.2,30.2,595.4,29.7,596.6,28.6z"/>
		<path class="st2" d="M648.3,9.7h9.4v41.9h-9.4l-20-26.3v26.3H619V9.7h8.8l20.6,27V9.7z"/>
		<path class="st2" d="M699.7,9.7v8.3h-20.9v8.6h18.8v8h-18.8v8.7h21.5v8.3h-30.9V9.7H699.7z"/>
		<path class="st2" d="M728,17.8v33.8h-9.4V17.8h-11.9V9.7h33.1v8.1H728z"/>
	</g>
</g>
<g>
	<path class="st2" d="M36.6,105.4V85.2H40v8.8h10v-8.8h3.4v20.2H50v-8.3H40v8.3H36.6z"/>
	<path class="st2" d="M71,105.4h-2.9v-2.1c-1.3,1.5-3,2.3-5.1,2.3c-1.6,0-2.9-0.5-4-1.4c-1.1-0.9-1.6-2.1-1.6-3.6
		c0-1.5,0.6-2.6,1.7-3.4c1.1-0.8,2.6-1.1,4.5-1.1h4.2v-0.6c0-2-1.1-3.1-3.4-3.1C63,92.5,61.5,93,60,94l-1.4-2c1.9-1.5,4-2.2,6.4-2.2
		c1.8,0,3.3,0.5,4.4,1.4c1.1,0.9,1.7,2.4,1.7,4.3V105.4z M67.8,99.7v-1.3h-3.6c-2.3,0-3.5,0.7-3.5,2.2c0,0.8,0.3,1.3,0.9,1.7
		c0.6,0.4,1.4,0.6,2.4,0.6s1.9-0.3,2.7-0.9S67.8,100.7,67.8,99.7z"/>
	<path class="st2" d="M79.5,105.4L73.3,90h3.4l4.7,11.6L86,90h3.4l-6.2,15.4H79.5z"/>
	<path class="st2" d="M106.2,99.1H94.2c0.1,1.1,0.6,2,1.5,2.7s2,1,3.2,1c1.9,0,3.4-0.6,4.4-1.8l1.9,2c-1.7,1.7-3.8,2.6-6.5,2.6
		c-2.2,0-4-0.7-5.5-2.2c-1.5-1.4-2.3-3.4-2.3-5.8c0-2.4,0.8-4.3,2.3-5.8c1.5-1.4,3.4-2.1,5.4-2.1c2.1,0,3.9,0.6,5.3,1.9
		c1.5,1.3,2.2,3,2.2,5.2V99.1z M94.2,96.6h8.8c0-1.3-0.4-2.3-1.2-3c-0.8-0.7-1.8-1-3-1c-1.2,0-2.3,0.4-3.2,1.1
		C94.6,94.4,94.2,95.3,94.2,96.6z"/>
	<path class="st2" d="M119.6,111.5c-1.4,0-2.7-0.5-3.8-1.5l1.5-2.6c0.7,0.6,1.4,1,2.1,1c0.7,0,1.3-0.3,1.8-0.8
		c0.5-0.5,0.7-1.1,0.7-1.7c0-0.3-2.1-5.5-6.2-15.8h3.5l4.6,11.3l4.6-11.3h3.5l-7.5,18.3c-0.4,1-1.1,1.8-1.9,2.4
		C121.6,111.2,120.6,111.5,119.6,111.5z"/>
	<path class="st2" d="M146.9,103.3c-1.5,1.5-3.5,2.3-5.8,2.3c-2.3,0-4.2-0.8-5.8-2.3s-2.3-3.4-2.3-5.6c0-2.2,0.8-4.1,2.3-5.6
		s3.5-2.3,5.8-2.3c2.3,0,4.2,0.8,5.8,2.3s2.3,3.4,2.3,5.6C149.2,99.9,148.4,101.8,146.9,103.3z M137.6,101.3
		c0.9,0.9,2.1,1.4,3.5,1.4c1.4,0,2.6-0.5,3.5-1.4c0.9-0.9,1.4-2.1,1.4-3.6c0-1.5-0.5-2.7-1.4-3.6c-0.9-0.9-2.1-1.4-3.5-1.4
		c-1.4,0-2.6,0.5-3.5,1.4c-0.9,0.9-1.4,2.1-1.4,3.6C136.3,99.2,136.7,100.4,137.6,101.3z"/>
	<path class="st2" d="M163.6,98.3V90h3.2v15.4h-3.2v-2.8c-0.5,0.9-1.2,1.7-2.2,2.2c-0.9,0.5-1.9,0.8-3,0.8c-1.7,0-3.1-0.5-4.2-1.6
		c-1.1-1.1-1.6-2.6-1.6-4.6V90h3.2v8.4c0,2.8,1.2,4.2,3.5,4.2c1.1,0,2.1-0.4,2.9-1.1C163.2,100.9,163.6,99.8,163.6,98.3z"/>
	<path class="st2" d="M179.6,93c-1.6,0-2.8,0.5-3.6,1.6c-0.8,1-1.2,2.4-1.2,4.2v6.6h-3.2V90h3.2v3.1c0.5-1,1.2-1.8,2.1-2.4
		c0.9-0.6,1.8-0.9,2.8-1l0,3.3C179.7,93,179.7,93,179.6,93z"/>
	<path class="st2" d="M201.9,100.8c0,1.5-0.5,2.6-1.6,3.5c-1.1,0.9-2.4,1.3-4.1,1.3c-1.1,0-2.3-0.2-3.5-0.6c-1.2-0.4-2.3-1-3.2-1.7
		l1.6-2.5c1.8,1.3,3.5,2,5.2,2c0.7,0,1.3-0.2,1.7-0.5c0.4-0.3,0.6-0.8,0.6-1.3c0-0.8-1-1.5-3.1-2.1c-0.2-0.1-0.3-0.1-0.3-0.1
		c-3.2-0.9-4.8-2.3-4.8-4.3c0-1.4,0.6-2.6,1.7-3.4s2.5-1.3,4.3-1.3c1.8,0,3.4,0.5,5,1.6l-1.2,2.4c-1.3-0.8-2.6-1.2-4.1-1.2
		c-0.8,0-1.4,0.1-1.9,0.4s-0.7,0.7-0.7,1.3c0,0.5,0.3,0.9,0.8,1.1c0.3,0.2,0.8,0.3,1.5,0.5c0.6,0.2,1.2,0.3,1.7,0.5
		c0.5,0.2,0.9,0.3,1.4,0.5c0.5,0.2,0.9,0.5,1.5,0.8C201.4,98.3,201.9,99.3,201.9,100.8z"/>
	<path class="st2" d="M218.1,105.4h-2.9v-2.1c-1.3,1.5-3,2.3-5.1,2.3c-1.6,0-2.9-0.5-4-1.4c-1.1-0.9-1.6-2.1-1.6-3.6
		c0-1.5,0.6-2.6,1.7-3.4c1.1-0.8,2.6-1.1,4.5-1.1h4.2v-0.6c0-2-1.1-3.1-3.4-3.1c-1.4,0-2.9,0.5-4.5,1.6l-1.4-2
		c1.9-1.5,4-2.2,6.4-2.2c1.8,0,3.3,0.5,4.4,1.4c1.1,0.9,1.7,2.4,1.7,4.3V105.4z M214.8,99.7v-1.3h-3.6c-2.3,0-3.5,0.7-3.5,2.2
		c0,0.8,0.3,1.3,0.9,1.7c0.6,0.4,1.4,0.6,2.4,0.6s1.9-0.3,2.7-0.9S214.8,100.7,214.8,99.7z"/>
	<path class="st2" d="M224.3,111.5c-1.4,0-2.7-0.5-3.8-1.5l1.5-2.6c0.7,0.6,1.4,1,2.1,1c0.7,0,1.3-0.3,1.8-0.8
		c0.5-0.5,0.7-1.1,0.7-1.7c0-0.3-2.1-5.5-6.2-15.8h3.5l4.6,11.3L233,90h3.5l-7.5,18.3c-0.4,1-1.1,1.8-1.9,2.4
		C226.2,111.2,225.3,111.5,224.3,111.5z"/>
	<path class="st2" d="M259.8,103.3c-1.5,1.5-3.5,2.3-5.8,2.3c-2.3,0-4.2-0.8-5.8-2.3s-2.3-3.4-2.3-5.6c0-2.2,0.8-4.1,2.3-5.6
		s3.5-2.3,5.8-2.3c2.3,0,4.2,0.8,5.8,2.3s2.3,3.4,2.3,5.6C262.1,99.9,261.3,101.8,259.8,103.3z M250.5,101.3
		c0.9,0.9,2.1,1.4,3.5,1.4c1.4,0,2.6-0.5,3.5-1.4c0.9-0.9,1.4-2.1,1.4-3.6c0-1.5-0.5-2.7-1.4-3.6c-0.9-0.9-2.1-1.4-3.5-1.4
		c-1.4,0-2.6,0.5-3.5,1.4c-0.9,0.9-1.4,2.1-1.4,3.6C249.1,99.2,249.6,100.4,250.5,101.3z"/>
	<path class="st2" d="M269,97.1v8.3h-3.2V90h3.2v2.8c0.5-0.9,1.2-1.7,2.2-2.2c0.9-0.5,1.9-0.8,3-0.8c1.7,0,3.1,0.5,4.2,1.6
		c1.1,1.1,1.6,2.6,1.6,4.6v9.4h-3.2V97c0-2.8-1.2-4.2-3.5-4.2c-1.1,0-2.1,0.4-2.9,1.1C269.4,94.6,269,95.6,269,97.1z"/>
	<path class="st2" d="M299.6,105.4h-3.7L290.5,90h3.4l3.8,11.6l3.8-11.6h3.4l3.8,11.6l3.8-11.6h3.4l-5.3,15.4h-3.7l-3.6-10.5
		L299.6,105.4z"/>
	<path class="st2" d="M322,97.1v8.3h-3.2V84h3.2v8.8c0.5-0.9,1.2-1.7,2.1-2.2c0.9-0.5,1.9-0.8,3-0.8c1.7,0,3.1,0.5,4.2,1.6
		c1.1,1.1,1.6,2.6,1.6,4.6v9.4h-3.2V97c0-2.8-1.2-4.2-3.5-4.2c-1.1,0-2.1,0.4-2.9,1.1C322.4,94.6,322,95.6,322,97.1z"/>
	<path class="st2" d="M339.3,111.5c-1.4,0-2.7-0.5-3.8-1.5l1.5-2.6c0.7,0.6,1.4,1,2.1,1s1.3-0.3,1.8-0.8c0.5-0.5,0.7-1.1,0.7-1.7
		c0-0.3-2.1-5.5-6.2-15.8h3.5l4.6,11.3L348,90h3.5l-7.5,18.3c-0.4,1-1.1,1.8-1.9,2.4C341.3,111.2,340.3,111.5,339.3,111.5z"/>
	<path class="st2" d="M378.5,91.7c0,3.3-1.5,5.4-4.4,6.3l5.3,7.3h-4.3l-4.8-6.8h-4.5v6.8h-3.4V85.2h7.5c3.1,0,5.3,0.5,6.6,1.6
		C377.8,87.8,378.5,89.5,378.5,91.7z M374,94.6c0.7-0.6,1-1.6,1-2.9s-0.4-2.2-1.1-2.7c-0.7-0.5-2-0.7-3.8-0.7h-4.3v7.2h4.2
		C372,95.5,373.3,95.2,374,94.6z"/>
	<path class="st2" d="M397.6,85.2v3.2h-10.8v5.3h9.7v3h-9.7v5.4H398v3.2h-14.5V85.2H397.6z"/>
	<path class="st2" d="M405.2,100.8l-2,4.6h-3.6l8.9-20.2h3.6l8.9,20.2h-3.6l-2-4.6H405.2z M413.9,97.6l-3.7-8.3l-3.7,8.3H413.9z"/>
	<path class="st2" d="M423.8,105.4V85.2h3.4v17h9.2v3.2H423.8z"/>
	<path class="st2" d="M450.8,97.1v8.3h-3.2V90h3.2v2.8c0.5-0.9,1.2-1.7,2.2-2.2c0.9-0.5,1.9-0.8,3-0.8c1.7,0,3.1,0.5,4.2,1.6
		c1.1,1.1,1.6,2.6,1.6,4.6v9.4h-3.2V97c0-2.8-1.2-4.2-3.5-4.2c-1.1,0-2.1,0.4-2.9,1.1C451.3,94.6,450.8,95.6,450.8,97.1z"/>
	<path class="st2" d="M480.6,99.1h-12.1c0.1,1.1,0.6,2,1.5,2.7s2,1,3.2,1c1.9,0,3.4-0.6,4.4-1.8l1.9,2c-1.7,1.7-3.8,2.6-6.5,2.6
		c-2.2,0-4-0.7-5.5-2.2c-1.5-1.4-2.3-3.4-2.3-5.8c0-2.4,0.8-4.3,2.3-5.8c1.5-1.4,3.4-2.1,5.4-2.1c2.1,0,3.9,0.6,5.3,1.9
		c1.5,1.3,2.2,3,2.2,5.2V99.1z M468.5,96.6h8.8c0-1.3-0.4-2.3-1.2-3c-0.8-0.7-1.8-1-3-1s-2.2,0.4-3.2,1.1S468.5,95.3,468.5,96.6z"/>
	<path class="st2" d="M488,92.6v7.8c0,0.7,0.2,1.3,0.6,1.7c0.4,0.4,0.9,0.7,1.6,0.7c0.7,0,1.4-0.3,2-1l1.3,2.3
		c-1.1,1-2.4,1.5-3.8,1.5c-1.4,0-2.6-0.5-3.5-1.4c-1-1-1.5-2.2-1.5-3.9v-7.7h-1.9V90h1.9v-4.8h3.2V90h4v2.6H488z"/>
	<path class="st2" d="M507.3,97.1v8.3H504V90h3.2v2.8c0.5-0.9,1.2-1.7,2.2-2.2c0.9-0.5,1.9-0.8,3-0.8c1.7,0,3.1,0.5,4.2,1.6
		c1.1,1.1,1.6,2.6,1.6,4.6v9.4H515V97c0-2.8-1.2-4.2-3.5-4.2c-1.1,0-2.1,0.4-2.9,1.1C507.7,94.6,507.3,95.6,507.3,97.1z"/>
	<path class="st2" d="M537,99.1H525c0.1,1.1,0.6,2,1.5,2.7s2,1,3.2,1c1.9,0,3.4-0.6,4.4-1.8l1.9,2c-1.7,1.7-3.8,2.6-6.5,2.6
		c-2.2,0-4-0.7-5.5-2.2c-1.5-1.4-2.3-3.4-2.3-5.8c0-2.4,0.8-4.3,2.3-5.8c1.5-1.4,3.4-2.1,5.4-2.1c2.1,0,3.9,0.6,5.3,1.9
		c1.5,1.3,2.2,3,2.2,5.2V99.1z M525,96.6h8.8c0-1.3-0.4-2.3-1.2-3c-0.8-0.7-1.8-1-3-1s-2.2,0.4-3.2,1.1S525,95.3,525,96.6z"/>
	<path class="st2" d="M551.3,98.3V90h3.2v15.4h-3.2v-2.8c-0.5,0.9-1.2,1.7-2.2,2.2c-0.9,0.5-1.9,0.8-3,0.8c-1.7,0-3.1-0.5-4.2-1.6
		c-1.1-1.1-1.6-2.6-1.6-4.6V90h3.2v8.4c0,2.8,1.2,4.2,3.5,4.2c1.1,0,2.1-0.4,2.9-1.1C550.9,100.9,551.3,99.8,551.3,98.3z"/>
	<path class="st2" d="M563.2,92.6v7.8c0,0.7,0.2,1.3,0.6,1.7c0.4,0.4,0.9,0.7,1.6,0.7c0.7,0,1.4-0.3,2-1l1.3,2.3
		c-1.1,1-2.4,1.5-3.8,1.5c-1.4,0-2.6-0.5-3.5-1.4c-1-1-1.5-2.2-1.5-3.9v-7.7h-1.9V90h1.9v-4.8h3.2V90h4v2.6H563.2z"/>
	<path class="st2" d="M579.4,93c-1.6,0-2.8,0.5-3.6,1.6c-0.8,1-1.2,2.4-1.2,4.2v6.6h-3.2V90h3.2v3.1c0.5-1,1.2-1.8,2.1-2.4
		c0.9-0.6,1.8-0.9,2.8-1l0,3.3C579.5,93,579.5,93,579.4,93z"/>
	<path class="st2" d="M595.1,105.4h-2.9v-2.1c-1.3,1.5-3,2.3-5.1,2.3c-1.6,0-2.9-0.5-4-1.4c-1.1-0.9-1.6-2.1-1.6-3.6
		c0-1.5,0.6-2.6,1.7-3.4c1.1-0.8,2.6-1.1,4.5-1.1h4.2v-0.6c0-2-1.1-3.1-3.4-3.1c-1.4,0-2.9,0.5-4.5,1.6l-1.4-2
		c1.9-1.5,4-2.2,6.4-2.2c1.8,0,3.3,0.5,4.4,1.4c1.1,0.9,1.7,2.4,1.7,4.3V105.4z M591.9,99.7v-1.3h-3.6c-2.3,0-3.5,0.7-3.5,2.2
		c0,0.8,0.3,1.3,0.9,1.7c0.6,0.4,1.4,0.6,2.4,0.6c1,0,1.9-0.3,2.7-0.9C591.5,101.4,591.9,100.7,591.9,99.7z"/>
	<path class="st2" d="M602.9,105.4h-3.2V83.9h3.2V105.4z"/>
	<path class="st2" d="M607.8,86.9c-0.4-0.4-0.6-0.9-0.6-1.4c0-0.6,0.2-1,0.6-1.4c0.4-0.4,0.9-0.6,1.4-0.6c0.6,0,1,0.2,1.4,0.6
		c0.4,0.4,0.6,0.9,0.6,1.4c0,0.6-0.2,1-0.6,1.4c-0.4,0.4-0.9,0.6-1.4,0.6C608.7,87.6,608.2,87.4,607.8,86.9z M610.8,105.4h-3.2V90
		h3.2V105.4z"/>
	<path class="st2" d="M619.5,92.6v7.8c0,0.7,0.2,1.3,0.6,1.7c0.4,0.4,0.9,0.7,1.6,0.7c0.7,0,1.4-0.3,2-1l1.3,2.3
		c-1.1,1-2.4,1.5-3.8,1.5c-1.4,0-2.6-0.5-3.5-1.4c-1-1-1.5-2.2-1.5-3.9v-7.7h-1.9V90h1.9v-4.8h3.2V90h4v2.6H619.5z"/>
	<path class="st2" d="M629.5,111.5c-1.4,0-2.7-0.5-3.8-1.5l1.5-2.6c0.7,0.6,1.4,1,2.1,1s1.3-0.3,1.8-0.8c0.5-0.5,0.7-1.1,0.7-1.7
		c0-0.3-2.1-5.5-6.2-15.8h3.5l4.6,11.3l4.6-11.3h3.5l-7.5,18.3c-0.4,1-1.1,1.8-1.9,2.4C631.4,111.2,630.5,111.5,629.5,111.5z"/>
	<path class="st2" d="M655.3,97.1v8.3h-3.2V90h3.2v2.8c0.5-0.9,1.2-1.7,2.1-2.2c0.9-0.5,1.9-0.8,3-0.8c2.4,0,4.1,1,4.9,3
		c1.5-2,3.4-3,5.7-3c1.7,0,3.1,0.5,4.2,1.6c1.1,1.1,1.6,2.6,1.6,4.6v9.4h-3.2V97c0-2.8-1.2-4.2-3.5-4.2c-1.1,0-2.1,0.4-2.9,1.1
		c-0.8,0.7-1.2,1.7-1.3,3.1v8.6h-3.2V97c0-1.5-0.3-2.5-0.8-3.2c-0.5-0.7-1.3-1-2.5-1c-1.1,0-2.1,0.4-2.9,1.1
		C655.7,94.6,655.3,95.6,655.3,97.1z"/>
	<path class="st2" d="M693.9,105.4h-2.9v-2.1c-1.3,1.5-3,2.3-5.1,2.3c-1.6,0-2.9-0.5-4-1.4c-1.1-0.9-1.6-2.1-1.6-3.6
		c0-1.5,0.6-2.6,1.7-3.4c1.1-0.8,2.6-1.1,4.5-1.1h4.2v-0.6c0-2-1.1-3.1-3.4-3.1c-1.4,0-2.9,0.5-4.5,1.6l-1.4-2
		c1.9-1.5,4-2.2,6.4-2.2c1.8,0,3.3,0.5,4.4,1.4c1.1,0.9,1.7,2.4,1.7,4.3V105.4z M690.6,99.7v-1.3H687c-2.3,0-3.5,0.7-3.5,2.2
		c0,0.8,0.3,1.3,0.9,1.7c0.6,0.4,1.4,0.6,2.4,0.6c1,0,1.9-0.3,2.7-0.9C690.2,101.4,690.6,100.7,690.6,99.7z"/>
	<path class="st2" d="M702.2,92.6v7.8c0,0.7,0.2,1.3,0.6,1.7c0.4,0.4,0.9,0.7,1.6,0.7c0.7,0,1.4-0.3,2-1l1.3,2.3
		c-1.1,1-2.4,1.5-3.8,1.5c-1.4,0-2.6-0.5-3.5-1.4c-1-1-1.5-2.2-1.5-3.9v-7.7H697V90h1.9v-4.8h3.2V90h4v2.6H702.2z"/>
	<path class="st2" d="M714.3,92.6v7.8c0,0.7,0.2,1.3,0.6,1.7c0.4,0.4,0.9,0.7,1.6,0.7c0.7,0,1.4-0.3,2-1l1.3,2.3
		c-1.1,1-2.4,1.5-3.8,1.5c-1.4,0-2.6-0.5-3.5-1.4c-1-1-1.5-2.2-1.5-3.9v-7.7h-1.9V90h1.9v-4.8h3.2V90h4v2.6H714.3z"/>
	<path class="st2" d="M736.7,99.1h-12.1c0.1,1.1,0.6,2,1.5,2.7s2,1,3.2,1c1.9,0,3.4-0.6,4.4-1.8l1.9,2c-1.7,1.7-3.8,2.6-6.5,2.6
		c-2.2,0-4-0.7-5.5-2.2c-1.5-1.4-2.3-3.4-2.3-5.8c0-2.4,0.8-4.3,2.3-5.8c1.5-1.4,3.4-2.1,5.4-2.1c2.1,0,3.9,0.6,5.3,1.9
		c1.5,1.3,2.2,3,2.2,5.2V99.1z M724.6,96.6h8.8c0-1.3-0.4-2.3-1.2-3c-0.8-0.7-1.8-1-3-1s-2.2,0.4-3.2,1.1S724.6,95.3,724.6,96.6z"/>
	<path class="st2" d="M748.3,93c-1.6,0-2.8,0.5-3.6,1.6c-0.8,1-1.2,2.4-1.2,4.2v6.6h-3.2V90h3.2v3.1c0.5-1,1.2-1.8,2.1-2.4
		c0.9-0.6,1.8-0.9,2.8-1l0,3.3C748.4,93,748.4,93,748.3,93z"/>
	<path class="st2" d="M762.7,100.8c0,1.5-0.5,2.6-1.6,3.5c-1.1,0.9-2.4,1.3-4.1,1.3c-1.1,0-2.3-0.2-3.5-0.6c-1.2-0.4-2.3-1-3.2-1.7
		l1.6-2.5c1.8,1.3,3.5,2,5.2,2c0.7,0,1.3-0.2,1.7-0.5c0.4-0.3,0.6-0.8,0.6-1.3c0-0.8-1-1.5-3.1-2.1c-0.2-0.1-0.3-0.1-0.3-0.1
		c-3.2-0.9-4.8-2.3-4.8-4.3c0-1.4,0.6-2.6,1.7-3.4c1.1-0.9,2.5-1.3,4.3-1.3s3.5,0.5,5,1.6l-1.2,2.4c-1.3-0.8-2.6-1.2-4.1-1.2
		c-0.8,0-1.4,0.1-1.9,0.4c-0.5,0.3-0.7,0.7-0.7,1.3c0,0.5,0.2,0.9,0.8,1.1c0.3,0.2,0.8,0.3,1.5,0.5c0.6,0.2,1.2,0.3,1.7,0.5
		c0.5,0.2,0.9,0.3,1.4,0.5c0.5,0.2,0.9,0.5,1.5,0.8C762.1,98.3,762.7,99.3,762.7,100.8z"/>
</g>
</svg>
