<svg id="Layer_2" data-name="Layer 2" xmlns="http://www.w3.org/2000/svg" viewBox="0 0 212.49 249.85"><title>produktion_io</title><path d="M135.22,86.93l38.63-9.66v96.59H135.22V86.93ZM19.31,38.63H38.63l30,30,8.59,8.59h0v96.59l9.66-86.93h9l-18.62,87H38.63V86.93l38.63-9.66h-58V38.63h0ZM71.75,66.22l34.49-27.59h29l38.63,38.63H77.27ZM0,212.48H212.49V0H0V212.48Z"/><path d="M2.36,234.14H9a9,9,0,0,1,2.64.36,5.78,5.78,0,0,1,2,1.06,4.63,4.63,0,0,1,1.29,1.71,5.57,5.57,0,0,1,.45,2.29h0a5.49,5.49,0,0,1-.5,2.4,4.92,4.92,0,0,1-1.37,1.74,6,6,0,0,1-2.1,1.06,9.51,9.51,0,0,1-2.65.35H6.63v4.4H2.36V234.14Zm6.29,7.66a2.72,2.72,0,0,0,1.79-.54,1.82,1.82,0,0,0,.65-1.47h0a1.83,1.83,0,0,0-.65-1.52,2.84,2.84,0,0,0-1.82-.52h-2v4.09h2Z"/><path d="M19.06,234.14h7.28a9,9,0,0,1,3,.44,5.16,5.16,0,0,1,2,1.23,4.76,4.76,0,0,1,1.36,3.59h0a4.84,4.84,0,0,1-.86,2.95,5.42,5.42,0,0,1-2.31,1.78l3.67,5.37H28.3l-3.1-4.66H23.33v4.66H19.06V234.14Zm7.08,7.39a2.58,2.58,0,0,0,1.69-.5,1.64,1.64,0,0,0,.59-1.33h0a1.59,1.59,0,0,0-.62-1.37,2.82,2.82,0,0,0-1.69-.45H23.33v3.7h2.82v-0.05Z"/><path d="M44.52,249.85a8.56,8.56,0,0,1-3.3-.63,8.12,8.12,0,0,1-2.62-1.71A7.88,7.88,0,0,1,36.87,245a7.74,7.74,0,0,1-.63-3.1h0a7.85,7.85,0,0,1,2.38-5.67,8.3,8.3,0,0,1,2.64-1.72,9,9,0,0,1,6.6,0,8.14,8.14,0,0,1,2.62,1.71,7.88,7.88,0,0,1,1.73,2.53,7.74,7.74,0,0,1,.63,3.1h0a7.85,7.85,0,0,1-2.38,5.67,8.29,8.29,0,0,1-2.64,1.72A8.56,8.56,0,0,1,44.52,249.85Zm0-3.85a3.85,3.85,0,0,0,1.61-.33,3.7,3.7,0,0,0,1.24-.89,4.14,4.14,0,0,0,.79-1.31,4.39,4.39,0,0,0,.29-1.58h0a4.39,4.39,0,0,0-.29-1.58,4.07,4.07,0,0,0-.82-1.32,3.9,3.9,0,0,0-4.47-.91,3.83,3.83,0,0,0-2,2.2,4.54,4.54,0,0,0-.28,1.58h0a4.39,4.39,0,0,0,.29,1.58,4.16,4.16,0,0,0,.81,1.32,3.87,3.87,0,0,0,1.25.91,3.75,3.75,0,0,0,1.61.33h0Z"/><path d="M57,234.14h6a11.21,11.21,0,0,1,3.68.56,7.78,7.78,0,0,1,2.73,1.57,6.72,6.72,0,0,1,1.69,2.41,7.9,7.9,0,0,1,.58,3.07h0a7.93,7.93,0,0,1-.59,3.09,6.93,6.93,0,0,1-1.72,2.45A7.93,7.93,0,0,1,66.61,249a11,11,0,0,1-3.71.58H57V234.14Zm6,11.62a4.56,4.56,0,0,0,3.09-1,3.6,3.6,0,0,0,1.17-2.88h0A3.61,3.61,0,0,0,66.16,239a4.53,4.53,0,0,0-3.09-1H61.32v7.83h1.74v-0.07Z"/><path d="M82.6,249.83a9.83,9.83,0,0,1-3-.42,5.74,5.74,0,0,1-2.24-1.29,5.68,5.68,0,0,1-1.42-2.2,9,9,0,0,1-.5-3.13v-8.65H79.8v8.56a3.48,3.48,0,0,0,.76,2.47,2.7,2.7,0,0,0,2.05.8,2.76,2.76,0,0,0,2.05-.77,3.28,3.28,0,0,0,.76-2.4v-8.67h4.36v8.54a9,9,0,0,1-.52,3.22,5.59,5.59,0,0,1-3.72,3.51A9.94,9.94,0,0,1,82.6,249.83Z"/><path d="M94.23,234.14H98.5v6.25l5.3-6.25h5.06L103,240.77l6,8.78h-5.13L100,243.83l-1.56,1.74v4H94.23V234.14Z"/><path d="M115.95,237.88h-4.62v-3.74h13.51v3.74h-4.62v11.66h-4.27V237.88Z"/><path d="M128.69,234.14H133v15.4h-4.29v-15.4h0Z"/><path d="M145.74,249.85a8.56,8.56,0,0,1-3.3-.63,8.12,8.12,0,0,1-2.62-1.71,7.88,7.88,0,0,1-1.73-2.53,7.74,7.74,0,0,1-.63-3.1h0a7.85,7.85,0,0,1,2.38-5.67,8.3,8.3,0,0,1,2.64-1.72,9,9,0,0,1,6.6,0,8.14,8.14,0,0,1,2.62,1.71,7.88,7.88,0,0,1,1.73,2.53,7.74,7.74,0,0,1,.63,3.1h0a7.85,7.85,0,0,1-2.38,5.67,8.29,8.29,0,0,1-2.64,1.72A8.56,8.56,0,0,1,145.74,249.85Zm0-3.85a3.85,3.85,0,0,0,1.61-.33,3.7,3.7,0,0,0,1.24-.89,4.14,4.14,0,0,0,.79-1.31,4.39,4.39,0,0,0,.29-1.58h0a4.39,4.39,0,0,0-.29-1.58,4.07,4.07,0,0,0-.82-1.32,3.9,3.9,0,0,0-4.47-.91,3.83,3.83,0,0,0-2,2.2,4.54,4.54,0,0,0-.28,1.58h0a4.39,4.39,0,0,0,.29,1.58,4.16,4.16,0,0,0,.81,1.32,3.87,3.87,0,0,0,1.25.91,3.75,3.75,0,0,0,1.61.33h0Z"/><path d="M158.17,234.14h4l6.35,8.14v-8.14h4.2v15.4H169l-6.59-8.45v8.45h-4.2v-15.4h0Z"/><path d="M176.91,245.25h4.36v4.29h-4.36v-4.29Z"/><path d="M185.56,234.14h4.29v15.4h-4.29v-15.4Z"/><path d="M202.65,249.85a8.56,8.56,0,0,1-3.3-.63,8.12,8.12,0,0,1-2.62-1.71A7.88,7.88,0,0,1,195,245a7.74,7.74,0,0,1-.63-3.1h0a7.85,7.85,0,0,1,2.38-5.67,8.3,8.3,0,0,1,2.64-1.72,9,9,0,0,1,6.6,0,8.14,8.14,0,0,1,2.62,1.71,7.88,7.88,0,0,1,1.73,2.53,7.74,7.74,0,0,1,.63,3.1h0a7.85,7.85,0,0,1-2.38,5.67,8.29,8.29,0,0,1-2.64,1.72A8.56,8.56,0,0,1,202.65,249.85Zm0-3.85a3.85,3.85,0,0,0,1.61-.33,3.7,3.7,0,0,0,1.24-.89,4.14,4.14,0,0,0,.79-1.31,4.39,4.39,0,0,0,.29-1.58h0a4.39,4.39,0,0,0-.29-1.58,4.07,4.07,0,0,0-.82-1.32,3.9,3.9,0,0,0-4.47-.91,3.83,3.83,0,0,0-2,2.2,4.54,4.54,0,0,0-.28,1.58h0a4.39,4.39,0,0,0,.29,1.58,4.16,4.16,0,0,0,.81,1.32,3.87,3.87,0,0,0,1.25.91,3.75,3.75,0,0,0,1.61.33h0Z"/></svg>